<!DOCTYPE svg PUBLIC "-//W3C//DTD SVG 20010904//EN" "http://www.w3.org/TR/2001/REC-SVG-20010904/DTD/svg10.dtd">
<svg version="1.0" xmlns="http://www.w3.org/2000/svg" viewBox="0 0 3600 3270" opacity=".5" preserveAspectRatio="xMidYMid meet">
<g id="layer101" fill="#000000" stroke="none">
 <path d="M1604 3260 c-92 -10 -270 -55 -362 -91 -389 -154 -668 -392 -858 -730 -75 -134 -129 -268 -164 -403 l-28 -110 -38 -13 c-116 -40 -184 -198 -130 -303 26 -51 85 -108 123 -121 29 -9 33 -15 33 -46 0 -20 12 -88 26 -151 108 -483 427 -897 851 -1107 154 -76 223 -102 352 -136 254 -66 538 -66 792 0 129 34 198 60 352 136 424 210 743 624 851 1107 14 63 26 131 26 149 1 30 6 37 53 64 159 92 152 316 -14 398 l-52 27 -27 107 c-116 452 -431 847 -837 1048 -154 76 -223 102 -352 136 -178 46 -394 60 -597 39z m494 -121 c306 -64 539 -183 759 -386 155 -143 293 -341 355 -508 44 -118 85 -245 92 -286 6 -33 4 -37 -17 -43 -35 -8 -97 -73 -120 -125 -26 -58 -26 -124 0 -182 25 -55 83 -114 129 -129 41 -14 41 -17 13 -151 -19 -94 -29 -127 -94 -308 -81 -225 -288 -480 -528 -652 -166 -119 -368 -203 -594 -249 -145 -29 -441 -29 -586 0 -220 44 -431 132 -590 246 -245 175 -457 439 -536 666 -10 29 -30 86 -44 126 -31 87 -71 276 -64 297 4 8 24 23 45 34 57 29 106 91 124 156 14 50 14 61 0 111 -18 63 -74 134 -122 154 -28 12 -30 15 -24 49 6 34 38 135 83 264 82 234 286 490 532 666 95 69 200 127 281 156 150 55 194 69 293 90 154 33 466 35 613 4z"/>
 <path d="M1465 2880 c-17 -19 -17 -21 1 -41 31 -35 139 -114 199 -145 30 -16 55 -33 55 -38 0 -5 -23 -6 -50 -4 -40 4 -67 17 -133 61 -145 98 -251 124 -363 93 -56 -17 -171 -82 -161 -92 3 -3 28 2 56 12 83 27 174 16 301 -37 58 -24 134 -50 170 -59 l65 -16 23 -88 c13 -49 21 -90 19 -92 -2 -3 -20 11 -40 31 -25 25 -44 35 -66 35 -17 0 -31 -5 -31 -10 0 -6 20 -52 44 -103 50 -104 112 -275 103 -284 -3 -3 -20 6 -37 21 -17 14 -38 26 -46 26 -7 0 -21 12 -30 26 -16 24 -16 27 -1 54 10 15 14 36 11 45 -6 14 -8 13 -21 -5 -17 -23 -65 -27 -82 -6 -7 8 -16 27 -21 43 -8 26 -8 26 -9 -13 -1 -22 4 -45 11 -52 6 -6 9 -14 6 -17 -10 -10 -37 7 -43 26 -5 16 -25 28 -25 15 0 -20 25 -66 36 -66 8 0 14 -10 14 -21 0 -16 -5 -20 -20 -16 -26 7 -26 -9 -1 -23 16 -8 26 -5 52 17 l32 27 18 -23 c14 -17 17 -32 13 -65 -5 -34 -1 -53 21 -95 14 -29 24 -55 21 -58 -2 -3 -22 7 -43 21 -33 23 -83 35 -83 21 0 -3 26 -43 57 -88 61 -86 43 -87 -25 -1 -50 64 -107 111 -150 125 -56 18 -56 -2 -2 -69 27 -34 66 -85 85 -114 l37 -53 -49 51 c-26 27 -77 83 -112 123 -61 70 -121 110 -163 111 -29 0 -21 -18 50 -108 76 -98 114 -150 127 -172 14 -23 -84 85 -168 187 -74 88 -122 133 -160 146 -16 6 -16 10 7 55 13 26 40 94 60 150 41 118 55 148 93 193 20 23 23 31 11 26 -10 -3 -57 -14 -105 -23 -49 -9 -109 -24 -135 -34 -69 -26 -168 -101 -216 -162 -38 -50 -85 -138 -77 -146 1 -2 24 19 49 46 34 36 79 67 159 108 62 33 140 80 175 106 34 26 62 45 62 43 0 -2 -15 -21 -34 -41 -49 -54 -75 -112 -92 -206 -8 -46 -19 -91 -25 -101 -12 -23 -18 -14 135 -202 72 -88 157 -194 189 -235 l58 -75 -66 70 c-36 39 -134 150 -216 248 l-150 178 7 47 c3 26 14 72 24 102 10 30 17 56 15 58 -4 4 -183 -116 -218 -147 -34 -31 -27 -30 -99 -6 -41 13 -63 16 -78 9 -21 -9 -20 -11 23 -67 l45 -58 -23 -54 c-13 -29 -27 -81 -30 -116 l-6 -64 28 52 c15 28 40 66 55 85 27 32 28 32 43 14 20 -26 20 -27 -16 -72 -84 -106 -120 -256 -95 -401 10 -54 26 -56 26 -3 0 21 12 70 26 107 37 97 71 192 82 233 l10 35 1 -46 c1 -59 21 -115 67 -191 20 -33 45 -77 55 -97 l18 -36 1 31 c0 42 -18 136 -41 217 -11 38 -19 71 -17 73 3 2 44 -42 93 -99 264 -306 471 -514 557 -558 67 -34 94 1 76 98 -5 26 -11 82 -15 124 -7 99 17 162 72 185 45 19 78 10 114 -31 24 -28 51 -104 51 -145 0 -17 -32 -40 -56 -40 -24 0 -32 -22 -16 -47 13 -20 111 -53 157 -53 72 0 81 15 115 193 13 65 53 121 95 131 45 11 93 -18 117 -70 17 -40 19 -60 15 -123 -4 -42 -10 -98 -15 -124 -18 -96 10 -132 75 -98 84 42 316 274 553 553 46 54 86 96 88 93 3 -2 -2 -30 -11 -62 -18 -66 -41 -212 -34 -219 5 -5 39 55 92 162 24 47 38 93 43 135 l7 64 14 -59 c7 -32 32 -104 56 -160 24 -56 47 -123 51 -151 6 -45 8 -47 17 -25 16 40 12 188 -7 259 -19 69 -31 93 -84 159 -34 42 -34 43 -16 64 19 20 19 20 51 -17 18 -21 38 -51 45 -66 35 -79 31 23 -4 118 l-19 53 40 52 c22 29 37 56 35 60 -9 14 -68 8 -107 -11 l-38 -18 -31 29 c-40 37 -227 162 -234 156 -2 -3 2 -20 10 -39 7 -19 17 -54 20 -79 4 -25 9 -57 12 -72 5 -23 -17 -53 -152 -215 -86 -103 -184 -215 -217 -248 l-59 -60 58 75 c33 41 118 147 190 235 151 185 149 182 136 198 -5 7 -17 54 -26 106 -19 108 -41 155 -99 219 -45 48 -28 45 38 -8 22 -17 94 -59 160 -93 81 -41 135 -77 168 -109 55 -55 60 -45 15 32 -40 70 -128 156 -198 195 -53 29 -310 90 -310 74 0 -3 7 -12 16 -19 27 -23 65 -97 100 -197 20 -54 48 -121 64 -149 l29 -52 -30 -12 c-47 -20 -74 -45 -177 -167 -118 -140 -156 -183 -146 -163 10 20 45 67 126 172 38 47 68 92 68 98 0 18 -58 4 -101 -25 -21 -13 -76 -69 -123 -124 -132 -154 -137 -140 -9 23 64 81 70 102 26 91 -45 -11 -101 -54 -153 -116 -62 -74 -80 -93 -85 -88 -2 3 21 38 51 79 30 41 54 78 54 82 0 15 -36 7 -79 -17 -24 -14 -46 -24 -48 -21 -2 2 8 28 22 57 22 42 26 61 21 95 -4 32 -1 48 12 63 l17 21 37 -26 c31 -22 40 -25 53 -14 21 18 19 29 -5 23 -24 -6 -29 24 -6 33 12 4 36 53 36 70 0 14 -19 0 -23 -16 -5 -21 -33 -37 -44 -26 -4 3 -1 12 5 18 7 7 12 30 11 53 -1 38 -1 38 -9 12 -12 -40 -29 -57 -55 -57 -35 0 -55 10 -55 29 -1 14 -2 14 -11 -2 -7 -13 -5 -25 8 -47 17 -29 16 -31 -3 -57 -12 -16 -30 -30 -40 -31 -10 -2 -29 -13 -41 -25 -13 -11 -26 -18 -29 -14 -10 10 35 136 94 260 40 85 52 121 44 129 -16 16 -61 1 -94 -33 -17 -16 -32 -28 -35 -26 -7 8 38 171 50 183 7 6 37 16 67 24 30 7 101 33 157 57 138 58 233 66 338 27 47 -18 -9 27 -75 60 -134 67 -251 55 -393 -41 -110 -74 -150 -93 -192 -93 -47 0 -44 13 8 36 46 21 178 117 215 157 l24 25 -26 18 -27 17 -77 -75 c-100 -97 -171 -146 -183 -127 -5 8 -9 17 -9 22 0 16 -29 6 -35 -13 -3 -11 -10 -20 -14 -20 -18 0 -112 71 -182 137 -42 40 -78 73 -81 73 -3 0 -13 -9 -23 -20z m277 -315 c-3 -56 -6 -64 -18 -54 -8 6 -14 17 -14 23 0 7 -11 28 -25 47 l-26 34 33 6 c18 4 38 7 43 8 6 1 9 -25 7 -64z m167 49 c1 -1 -8 -18 -22 -36 -13 -18 -28 -43 -32 -55 -12 -41 -23 -24 -27 42 l-3 64 40 -6 c22 -3 42 -7 44 -9z m901 -435 c0 -20 -16 -7 -33 29 l-18 37 26 -28 c14 -15 25 -32 25 -38z m-2022 6 c-6 -13 -15 -22 -19 -19 -9 5 11 44 23 44 4 0 3 -11 -4 -25z m-36 -144 c-4 -11 -11 -7 -28 14 -12 15 -20 35 -17 42 4 11 11 8 28 -13 13 -16 20 -35 17 -43z m2121 63 c3 -4 -6 -22 -20 -41 -18 -23 -29 -30 -34 -22 -4 7 2 25 14 41 21 29 29 33 40 22z m-1853 -358 c150 -175 207 -245 224 -276 12 -21 -70 65 -193 205 -181 205 -231 267 -225 277 8 12 3 17 194 -206z m1723 190 c-12 -20 -266 -310 -351 -401 -42 -44 -72 -73 -67 -65 36 60 406 491 416 484 5 -3 6 -11 2 -18z"/>
 <path d="M2370 2684 c-56 -9 -250 -58 -250 -63 0 -4 22 -14 50 -24 55 -20 86 -43 226 -170 53 -48 99 -86 101 -83 2 2 -12 36 -32 76 -45 89 -105 155 -153 170 -20 6 -43 14 -51 16 -32 10 0 14 42 4 26 -5 102 -15 169 -20 135 -12 218 -31 261 -62 48 -34 41 -13 -14 41 -92 91 -222 134 -349 115z"/>
 <path d="M1015 2662 c-83 -31 -116 -52 -173 -109 -58 -58 -64 -81 -10 -40 46 35 124 56 255 67 62 6 135 15 163 21 63 13 77 5 21 -12 -65 -19 -114 -69 -165 -169 -26 -49 -42 -90 -37 -90 6 0 59 46 118 103 125 120 149 137 222 164 l54 20 -114 27 c-152 37 -267 43 -334 18z"/>
 <path d="M2902 1657 c-11 -24 -52 -92 -92 -151 -60 -90 -118 -211 -107 -222 2 -2 38 31 81 73 80 79 114 132 126 193 7 35 13 -82 14 -312 l1 -106 27 47 c40 68 62 163 55 236 -4 33 -24 111 -46 173 l-39 114 -20 -45z"/>
 <path d="M640 1675 c0 -9 -16 -64 -36 -123 -32 -97 -35 -115 -32 -192 5 -90 31 -173 69 -220 l20 -25 -7 35 c-4 19 -6 69 -4 110 2 41 4 117 5 168 0 92 8 117 20 63 9 -40 38 -77 129 -162 60 -56 77 -68 71 -49 -20 68 -55 131 -126 231 -43 61 -81 123 -84 139 -7 33 -25 50 -25 25z"/>
 <path d="M2851 1365 c-13 -20 -45 -51 -70 -69 -68 -50 -149 -139 -171 -188 -26 -57 -25 -81 1 -45 12 15 49 47 82 71 71 51 118 98 140 141 20 38 22 17 2 -32 -8 -21 -24 -78 -35 -128 -12 -49 -32 -107 -46 -127 -32 -50 -14 -48 43 5 79 72 103 164 86 329 l-8 78 -24 -35z"/>
 <path d="M693 1245 c2 -135 3 -142 32 -194 26 -48 103 -121 127 -121 5 0 -2 15 -16 33 -21 27 -57 138 -93 282 -3 12 6 4 23 -18 16 -22 66 -66 111 -99 45 -32 90 -69 99 -81 16 -22 16 -22 9 8 -13 58 -57 115 -143 186 -48 40 -101 88 -119 108 l-32 36 2 -140z"/>
 <path d="M2693 1082 c-33 -31 -80 -84 -103 -117 -24 -33 -56 -75 -73 -92 -17 -18 -28 -36 -24 -39 3 -4 35 7 70 24 68 32 126 83 153 135 22 40 54 147 46 147 -4 -1 -35 -26 -69 -58z"/>
 <path d="M829 1077 c43 -123 96 -187 191 -231 73 -34 91 -34 59 2 -14 15 -45 54 -69 87 -44 60 -177 195 -191 195 -4 0 0 -24 10 -53z"/>
 <path d="M1216 823 c4 -15 11 -38 15 -51 16 -42 9 -57 -40 -92 l-50 -35 67 -5 66 -5 20 -63 20 -64 22 64 21 63 66 5 66 5 -50 35 c-54 39 -56 45 -34 115 8 27 13 50 11 52 -1 2 -24 -13 -49 -32 -25 -19 -49 -35 -52 -35 -4 0 -24 13 -44 28 -59 46 -63 47 -55 15z"/>
 <path d="M2140 840 c0 -6 8 -34 17 -62 18 -57 20 -54 -62 -115 l-30 -22 67 -1 66 0 17 -52 c10 -29 21 -57 25 -61 3 -4 15 20 25 53 l18 60 66 0 66 1 -25 21 c-14 11 -38 30 -53 42 l-28 22 20 62 c10 34 15 62 11 62 -5 0 -11 -4 -14 -8 -3 -5 -23 -21 -45 -36 l-40 -28 -51 37 c-27 20 -50 32 -50 25z"/>
 <path d="M1660 748 c0 -2 11 -38 24 -80 l24 -77 -66 -50 -66 -51 82 0 81 0 25 -77 c14 -43 25 -76 26 -73 1 3 11 37 23 75 l23 70 78 5 79 5 -62 49 c-34 26 -60 53 -58 60 12 32 38 129 35 131 -2 2 -27 -14 -55 -36 -29 -21 -58 -39 -65 -39 -7 0 -39 20 -70 45 -32 25 -58 44 -58 43z"/>
 </g>

</svg>
