<?xml version="1.0" encoding="UTF-8" standalone="no"?>
<!-- Created with Inkscape (http://www.inkscape.org/) -->

<svg
   version="1.1"
   id="svg314"
   width="678"
   height="452"
   viewBox="0 0 678 452"
   sodipodi:docname="sombnw.svg"
   inkscape:version="1.2 (dc2aedaf03, 2022-05-15)"
   xmlns:inkscape="http://www.inkscape.org/namespaces/inkscape"
   xmlns:sodipodi="http://sodipodi.sourceforge.net/DTD/sodipodi-0.dtd"
   xmlns="http://www.w3.org/2000/svg"
   xmlns:svg="http://www.w3.org/2000/svg">
  <defs
     id="defs318">
    <clipPath
       clipPathUnits="userSpaceOnUse"
       id="clipPath680">
      <path
         id="path682"
         style="fill:#ff0000;fill-opacity:1;fill-rule:nonzero;stroke:none"
         d="M 0,0 V 452 H 678 V 0 Z m 321.3125,92.603516 c 0.65606,-0.01962 1.1471,0.733479 0.60742,1.833984 -0.49201,1.003273 -0.98261,2.006492 -1.47461,3.009766 -1.63053,3.527524 -3.27786,7.054344 -4.49804,10.751954 -0.76731,2.32499 -1.30438,4.71795 -1.73438,7.125 -0.34489,1.93057 -2.29444,1.85166 -1.97851,-0.084 0.41859,-2.56503 0.99422,-5.11249 1.80664,-7.58398 1.24838,-3.79811 2.93231,-7.4167 4.60546,-11.039062 l 1.4961,-3.050782 c 0.32371,-0.660348 0.77628,-0.951119 1.16992,-0.96289 z m 28.86719,13.107424 c 0.22746,-0.009 0.51518,0.17757 0.79297,0.33594 0.1278,-0.0889 0.28047,-0.13447 0.44531,-0.12891 0.38486,0.013 0.83337,0.30227 1.17578,0.95312 0.11109,0.21117 0.18853,0.40641 0.23828,0.59375 0.37136,-0.0172 0.74287,-0.0369 1.11328,-0.0684 0.0611,-0.005 0.12012,-0.009 0.17774,-0.01 0.73096,-0.0146 1.18367,0.28613 1.33398,0.6582 0.0941,0.016 0.18934,0.0238 0.2832,0.041 0.66278,0.11146 1.29585,0.36009 1.88282,0.68164 0.7099,0.38889 0.8712,0.90074 0.79297,1.32422 1.82341,0.1771 2.38885,1.57624 0.50586,1.84765 -0.2319,0.0334 -0.46307,0.0926 -0.69727,0.0996 -0.49527,0.0148 -1.00932,-0.093 -1.51953,-0.19922 0.0587,0.7363 -0.78599,1.25287 -1.89063,0.54102 -0.48637,-0.31342 -0.97267,-0.63425 -1.39453,-1.0332 -0.31471,-0.29763 -0.49276,-0.59507 -0.56445,-0.86524 -0.0329,0.0215 -0.0377,0.0522 -0.0859,0.0684 -0.55258,0.18549 -0.89747,0.29724 -1.43945,0.4961 -0.18933,0.0695 -0.36818,0.16854 -0.56446,0.21484 -0.27955,0.0661 -0.66429,0.33538 -0.85351,0.11914 -0.16793,-0.19191 -0.16624,-0.47849 -0.22656,-0.73047 -0.41347,-0.1571 -0.47515,-0.54444 -0.31446,-0.97461 -0.69171,0.0778 -1.38265,0.16379 -2.07617,0.21875 -0.47436,0.0376 -0.83189,-0.0596 -1.08984,-0.2168 -0.19795,0.0194 -0.39543,0.0388 -0.59375,0.0547 -1.9549,0.15651 -2.09534,-1.81792 -0.14063,-1.97656 1.40915,-0.11437 2.80691,-0.3259 4.20899,-0.50391 0.0858,-0.0105 0.0591,-0.008 0.125,-0.0156 -0.49787,-0.76422 -0.32096,-1.49737 0.375,-1.52539 z m -19.95313,1.94922 c 1.62326,0.0211 1.72156,1.76389 -0.10351,1.98632 -0.67186,0.0819 -1.34438,0.16519 -2.01367,0.26563 -0.37235,0.0508 -0.74573,0.10246 -1.1211,0.15039 -0.2364,0.22671 -0.59036,0.40034 -1.13476,0.41406 -1.39608,0.0353 -2.79274,0.0804 -4.18946,0.0664 -1.96106,-0.0196 -1.96105,-2.00037 0,-1.98047 0.28852,0.003 0.57679,-0.012 0.86524,-0.0137 0.26997,-0.24333 0.72504,-0.39653 1.34765,-0.33399 1.32078,0.13268 2.6568,-0.0861 3.96485,-0.26562 0.6789,-0.10182 1.35963,-0.18633 2.04101,-0.26953 0.12167,-0.0149 0.23554,-0.0209 0.34375,-0.0195 z" />
    </clipPath>
    <inkscape:path-effect
       effect="mirror_symmetry"
       start_point="445,445"
       end_point="139.07133,78.054464"
       center_point="139.07133,57.649269"
       id="path-effect201"
       is_visible="true"
       lpeversion="1.2"
       lpesatellites=""
       mode="free"
       discard_orig_path="false"
       fuse_paths="false"
       oposite_fuse="false"
       split_items="false"
       split_open="false"
       link_styles="false" />
    <clipPath
       clipPathUnits="userSpaceOnUse"
       id="clipPath1130-2">
      <path
         id="path1132-5"
         style="fill:#ff0000;fill-opacity:1;fill-rule:nonzero;stroke:none"
         d="M 102.13477,38.025391 V 452.01562 H 576 V 38.025391 Z M 437.67188,282.6875 c 0.0774,-4.3e-4 0.13318,0.0906 0.0664,0.21875 -0.0607,0.11648 -0.11789,0.23385 -0.18359,0.34766 -0.1228,0.21724 -0.25396,0.43007 -0.38477,0.64257 -0.0993,0.16119 -0.20929,0.31404 -0.3125,0.47266 -0.08,0.12346 -0.16148,0.24563 -0.23828,0.37109 -0.0641,0.10626 -0.12841,0.21195 -0.19531,0.31641 -0.0668,0.10227 -0.12639,0.2084 -0.17969,0.31836 -0.0424,0.0728 -0.0882,0.14389 -0.13672,0.21289 -0.0582,0.10269 -0.11181,0.20759 -0.16211,0.31445 -0.0621,0.12813 -0.12144,0.25767 -0.18164,0.38672 -0.0588,0.12604 -0.16042,0.14426 -0.21094,0.0937 -0.007,0.0188 -0.0141,0.038 -0.0215,0.0566 -0.0852,0.21496 -0.30395,0.12712 -0.21875,-0.0879 0.0284,-0.0716 0.0587,-0.14159 0.0879,-0.21289 0.009,-0.0242 0.0179,-0.0481 0.0273,-0.0723 -0.0424,0.0653 -0.082,0.13235 -0.125,0.19726 -0.25518,0.38571 -0.64593,0.12782 -0.39062,-0.25781 0.19473,-0.29413 0.38412,-0.59176 0.56836,-0.89258 0.42009,-0.72188 0.81366,-1.45862 1.20703,-2.19531 0.0749,-0.14024 0.17061,-0.20467 0.25586,-0.21094 0.16275,-0.012 0.28506,0.18514 0.14258,0.45313 -0.0617,0.11607 -0.12615,0.23056 -0.18946,0.3457 0.006,-0.006 0.0131,-0.0117 0.0195,-0.0176 0.0534,-0.0487 0.10929,-0.0729 0.15429,-0.0762 0.0719,-0.005 0.0535,0.0743 0.0332,0.14453 0.0846,-0.13838 0.16829,-0.27683 0.24804,-0.41797 0.0643,-0.11151 0.12029,-0.22572 0.17969,-0.33984 0.0401,-0.0769 0.0942,-0.11107 0.14063,-0.11133 z m -34.78516,35.12695 c 0.12877,-0.007 0.20921,0.14429 0.0723,0.32227 -0.21475,0.2782 -0.4307,0.55573 -0.65039,0.83008 0.0118,-0.0136 0.0235,-0.0273 0.0352,-0.041 0.0332,-0.0388 0.0684,-0.0545 0.0977,-0.0547 0.0178,-1e-4 0.033,0.007 0.0449,0.0176 h 0.002 c 0.0644,-0.0485 0.12498,-0.0702 0.17578,-0.0703 0.15387,-2e-4 0.21669,0.18563 0.0215,0.33398 -0.0665,0.0505 -0.13272,0.10185 -0.19922,0.15235 -0.0516,0.038 -0.10632,0.0717 -0.15821,0.10937 0.0156,0.0353 0.002,0.0878 -0.0605,0.12891 -0.29444,0.1941 -0.58867,0.3885 -0.88086,0.58594 -0.07,0.047 -0.14069,0.0949 -0.20899,0.14453 -0.14454,0.10487 -0.004,0.006 -0.14648,0.11133 -0.0217,0.0161 -0.0444,0.0312 -0.0664,0.0469 -0.0211,0.014 -0.041,0.0278 -0.0625,0.041 -0.0657,0.0404 -0.13717,0.0698 -0.20117,0.11328 -0.0924,0.0533 -0.18814,0.10135 -0.27734,0.16015 -0.11991,0.0766 -0.24063,0.15503 -0.35742,0.23633 -0.13206,0.0904 -0.26192,0.18462 -0.40235,0.26172 -0.085,0.0467 -0.14229,0.0126 -0.14648,-0.0391 -0.0129,0.01 -0.0264,0.0192 -0.0391,0.0293 -0.0231,0.0184 -0.0462,0.037 -0.0684,0.0566 -0.006,0.005 -0.0118,0.0103 -0.0176,0.0156 -0.0212,0.0193 -0.0427,0.038 -0.0645,0.0566 -0.006,0.005 -0.0134,0.009 -0.0195,0.0137 -0.009,0.006 -0.0168,0.0118 -0.0254,0.0156 -0.001,7e-4 -0.003,5.5e-4 -0.004,0.002 -0.003,10e-4 -0.005,0.002 -0.008,0.004 v -0.002 c -0.0876,0.0298 -0.14131,-0.0608 -0.0645,-0.14648 l -0.002,-0.002 c 0.006,-0.003 0.0106,-0.008 0.0156,-0.0117 0.002,-0.002 0.004,-0.002 0.006,-0.004 0.003,-0.002 0.005,-0.005 0.008,-0.008 0.0132,-0.0116 0.0261,-0.0233 0.0391,-0.0352 -0.0809,0.0141 -0.16757,0.03 -0.20117,-0.0117 -0.0217,0.01 -0.0428,0.0182 -0.0625,0.0234 -0.23482,0.14937 -0.47644,0.28851 -0.70118,0.45313 -0.2638,0.19325 -0.49167,-0.0306 -0.23437,-0.23242 0.0429,-0.0336 0.0849,-0.0696 0.1289,-0.10157 0.25717,-0.18663 0.52748,-0.35564 0.79688,-0.52343 0.80855,-0.50403 -0.0941,0.0628 0.7168,-0.44727 0.37886,-0.2425 0.75981,-0.48396 1.0957,-0.78516 0.18597,-0.16676 0.20105,-0.19187 0.36719,-0.375 0.17789,-0.20468 0.3381,-0.4246 0.47265,-0.66015 0.0449,-0.0786 0.087,-0.15918 0.13086,-0.23828 0.0734,-0.12329 0.0356,-0.0644 0.10938,-0.17579 0.0565,-0.0852 0.12146,-0.12555 0.17969,-0.13281 0.008,-10e-4 0.0157,-0.002 0.0234,-0.002 0.11528,0.004 0.18918,0.14323 0.0723,0.31836 -0.0633,0.0945 -0.0321,0.0445 -0.0977,0.15429 -0.0457,0.0823 -0.0879,0.1645 -0.13476,0.2461 -0.14595,0.25421 -0.31915,0.49199 -0.51172,0.71289 -0.17913,0.19617 -0.19743,0.22663 -0.39649,0.4043 -0.0492,0.0439 -0.10927,0.0735 -0.16015,0.11523 0.015,-0.008 0.0299,-0.0157 0.0449,-0.0234 0.12354,-0.0634 0.20285,-0.11222 0.28516,-0.15625 0.0732,-0.0783 0.14395,-0.15797 0.21875,-0.23437 0.45432,-0.50544 0.86637,-1.04449 1.28125,-1.58203 0.0624,-0.0809 0.13092,-0.11786 0.18945,-0.1211 z" />
    </clipPath>
    <clipPath
       clipPathUnits="userSpaceOnUse"
       id="clipPath1130-1">
      <path
         id="path1132-1"
         style="fill:#ff0000;fill-opacity:1;fill-rule:nonzero;stroke:none"
         d="M 102.13477,38.025391 V 452.01562 H 576 V 38.025391 Z M 437.67188,282.6875 c 0.0774,-4.3e-4 0.13318,0.0906 0.0664,0.21875 -0.0607,0.11648 -0.11789,0.23385 -0.18359,0.34766 -0.1228,0.21724 -0.25396,0.43007 -0.38477,0.64257 -0.0993,0.16119 -0.20929,0.31404 -0.3125,0.47266 -0.08,0.12346 -0.16148,0.24563 -0.23828,0.37109 -0.0641,0.10626 -0.12841,0.21195 -0.19531,0.31641 -0.0668,0.10227 -0.12639,0.2084 -0.17969,0.31836 -0.0424,0.0728 -0.0882,0.14389 -0.13672,0.21289 -0.0582,0.10269 -0.11181,0.20759 -0.16211,0.31445 -0.0621,0.12813 -0.12144,0.25767 -0.18164,0.38672 -0.0588,0.12604 -0.16042,0.14426 -0.21094,0.0937 -0.007,0.0188 -0.0141,0.038 -0.0215,0.0566 -0.0852,0.21496 -0.30395,0.12712 -0.21875,-0.0879 0.0284,-0.0716 0.0587,-0.14159 0.0879,-0.21289 0.009,-0.0242 0.0179,-0.0481 0.0273,-0.0723 -0.0424,0.0653 -0.082,0.13235 -0.125,0.19726 -0.25518,0.38571 -0.64593,0.12782 -0.39062,-0.25781 0.19473,-0.29413 0.38412,-0.59176 0.56836,-0.89258 0.42009,-0.72188 0.81366,-1.45862 1.20703,-2.19531 0.0749,-0.14024 0.17061,-0.20467 0.25586,-0.21094 0.16275,-0.012 0.28506,0.18514 0.14258,0.45313 -0.0617,0.11607 -0.12615,0.23056 -0.18946,0.3457 0.006,-0.006 0.0131,-0.0117 0.0195,-0.0176 0.0534,-0.0487 0.10929,-0.0729 0.15429,-0.0762 0.0719,-0.005 0.0535,0.0743 0.0332,0.14453 0.0846,-0.13838 0.16829,-0.27683 0.24804,-0.41797 0.0643,-0.11151 0.12029,-0.22572 0.17969,-0.33984 0.0401,-0.0769 0.0942,-0.11107 0.14063,-0.11133 z m -34.78516,35.12695 c 0.12877,-0.007 0.20921,0.14429 0.0723,0.32227 -0.21475,0.2782 -0.4307,0.55573 -0.65039,0.83008 0.0118,-0.0136 0.0235,-0.0273 0.0352,-0.041 0.0332,-0.0388 0.0684,-0.0545 0.0977,-0.0547 0.0178,-1e-4 0.033,0.007 0.0449,0.0176 h 0.002 c 0.0644,-0.0485 0.12498,-0.0702 0.17578,-0.0703 0.15387,-2e-4 0.21669,0.18563 0.0215,0.33398 -0.0665,0.0505 -0.13272,0.10185 -0.19922,0.15235 -0.0516,0.038 -0.10632,0.0717 -0.15821,0.10937 0.0156,0.0353 0.002,0.0878 -0.0605,0.12891 -0.29444,0.1941 -0.58867,0.3885 -0.88086,0.58594 -0.07,0.047 -0.14069,0.0949 -0.20899,0.14453 -0.14454,0.10487 -0.004,0.006 -0.14648,0.11133 -0.0217,0.0161 -0.0444,0.0312 -0.0664,0.0469 -0.0211,0.014 -0.041,0.0278 -0.0625,0.041 -0.0657,0.0404 -0.13717,0.0698 -0.20117,0.11328 -0.0924,0.0533 -0.18814,0.10135 -0.27734,0.16015 -0.11991,0.0766 -0.24063,0.15503 -0.35742,0.23633 -0.13206,0.0904 -0.26192,0.18462 -0.40235,0.26172 -0.085,0.0467 -0.14229,0.0126 -0.14648,-0.0391 -0.0129,0.01 -0.0264,0.0192 -0.0391,0.0293 -0.0231,0.0184 -0.0462,0.037 -0.0684,0.0566 -0.006,0.005 -0.0118,0.0103 -0.0176,0.0156 -0.0212,0.0193 -0.0427,0.038 -0.0645,0.0566 -0.006,0.005 -0.0134,0.009 -0.0195,0.0137 -0.009,0.006 -0.0168,0.0118 -0.0254,0.0156 -0.001,7e-4 -0.003,5.5e-4 -0.004,0.002 -0.003,10e-4 -0.005,0.002 -0.008,0.004 v -0.002 c -0.0876,0.0298 -0.14131,-0.0608 -0.0645,-0.14648 l -0.002,-0.002 c 0.006,-0.003 0.0106,-0.008 0.0156,-0.0117 0.002,-0.002 0.004,-0.002 0.006,-0.004 0.003,-0.002 0.005,-0.005 0.008,-0.008 0.0132,-0.0116 0.0261,-0.0233 0.0391,-0.0352 -0.0809,0.0141 -0.16757,0.03 -0.20117,-0.0117 -0.0217,0.01 -0.0428,0.0182 -0.0625,0.0234 -0.23482,0.14937 -0.47644,0.28851 -0.70118,0.45313 -0.2638,0.19325 -0.49167,-0.0306 -0.23437,-0.23242 0.0429,-0.0336 0.0849,-0.0696 0.1289,-0.10157 0.25717,-0.18663 0.52748,-0.35564 0.79688,-0.52343 0.80855,-0.50403 -0.0941,0.0628 0.7168,-0.44727 0.37886,-0.2425 0.75981,-0.48396 1.0957,-0.78516 0.18597,-0.16676 0.20105,-0.19187 0.36719,-0.375 0.17789,-0.20468 0.3381,-0.4246 0.47265,-0.66015 0.0449,-0.0786 0.087,-0.15918 0.13086,-0.23828 0.0734,-0.12329 0.0356,-0.0644 0.10938,-0.17579 0.0565,-0.0852 0.12146,-0.12555 0.17969,-0.13281 0.008,-10e-4 0.0157,-0.002 0.0234,-0.002 0.11528,0.004 0.18918,0.14323 0.0723,0.31836 -0.0633,0.0945 -0.0321,0.0445 -0.0977,0.15429 -0.0457,0.0823 -0.0879,0.1645 -0.13476,0.2461 -0.14595,0.25421 -0.31915,0.49199 -0.51172,0.71289 -0.17913,0.19617 -0.19743,0.22663 -0.39649,0.4043 -0.0492,0.0439 -0.10927,0.0735 -0.16015,0.11523 0.015,-0.008 0.0299,-0.0157 0.0449,-0.0234 0.12354,-0.0634 0.20285,-0.11222 0.28516,-0.15625 0.0732,-0.0783 0.14395,-0.15797 0.21875,-0.23437 0.45432,-0.50544 0.86637,-1.04449 1.28125,-1.58203 0.0624,-0.0809 0.13092,-0.11786 0.18945,-0.1211 z" />
    </clipPath>
    <clipPath
       clipPathUnits="userSpaceOnUse"
       id="clipPath1904">
      <path
         id="path1906"
         style="fill:#ff0000;fill-opacity:1;fill-rule:nonzero;stroke:none"
         d="M 575.99928,38.025782 V 452.01602 H 102.13405 V 38.025782 Z M 239.09303,154.13711 c -0.14139,-0.008 -0.31726,0.0866 -0.44726,0.31836 -0.19622,0.34975 -0.40873,0.69014 -0.61329,1.03516 -0.30123,0.49547 -0.6237,0.97718 -0.9375,1.46484 -0.0405,0.0648 -0.0806,0.12856 -0.12109,0.19336 -0.34634,0.55483 0.21437,0.90454 0.56055,0.34961 0.0389,-0.0622 0.0784,-0.12335 0.11718,-0.18555 0.14184,-0.22041 0.28144,-0.44214 0.42383,-0.66211 -0.002,0.021 -0.003,0.0422 -0.006,0.0625 -0.002,0.0139 -0.003,0.0272 -0.006,0.041 -10e-4,0.006 -0.004,0.0129 -0.006,0.0195 -0.0759,0.10043 -0.15832,0.19622 -0.23632,0.29492 -0.0355,0.0482 -0.0179,0.0252 -0.0508,0.0703 -0.0482,0.066 0.0182,0.11516 0.0664,0.0488 0.0322,-0.0441 0.0171,-0.0225 0.0508,-0.0684 0.048,-0.0607 0.0958,-0.12159 0.14453,-0.18164 0.0178,0.0266 0.0606,0.0208 0.0762,-0.0332 5.5e-4,-0.002 6e-4,-0.004 0.002,-0.006 0.008,-0.005 0.0146,-0.0117 0.0215,-0.0215 -9.2e-4,0.002 -6e-4,0.004 -0.002,0.006 -0.0476,0.0934 -0.0917,0.19046 -0.13672,0.28516 -0.0333,0.07 -0.0177,0.12231 0.0156,0.14258 -0.0453,0.11296 -0.0904,0.22642 -0.14649,0.33398 -0.031,0.0468 -0.0611,0.0947 -0.0976,0.13672 0.0166,-0.0337 0.0308,-0.0687 0.0488,-0.10156 0.04,-0.0778 0.0737,-0.15838 0.11719,-0.23438 0.0482,-0.0842 0.0161,-0.14504 -0.0351,-0.15039 -0.0351,-0.004 -0.0781,0.0186 -0.11133,0.0762 -0.0434,0.0752 -0.0773,0.15543 -0.11719,0.23243 -0.043,0.0784 -0.083,0.16038 -0.11914,0.24218 -0.0441,0.1 0.0416,0.0589 0.10156,0.0449 -0.0548,0.0801 0.038,0.13261 0.13867,0.0762 -0.0156,0.002 -0.0336,0.0123 -0.0469,0.0371 -0.0216,0.0404 -0.0429,0.0808 -0.0645,0.12109 -0.0386,0.072 0.0337,0.11092 0.0723,0.0391 0.0215,-0.0402 0.043,-0.0809 0.0645,-0.12109 0.0204,-0.038 0.0115,-0.066 -0.01,-0.0742 0.0438,-0.0342 0.0719,-0.082 0.10547,-0.125 -0.007,0.0251 -0.014,0.0509 -0.0195,0.0762 -0.007,0.0304 0.0184,-0.005 0.0312,0.004 0.007,0.003 0.0149,0.004 0.0234,0.002 0.0141,-0.007 0.0206,0.0299 0.0274,0.004 0.002,-0.008 0.004,-0.017 0.006,-0.0254 l 0.002,-0.002 c 0.002,-0.002 0.002,-0.005 0.004,-0.008 l 0.002,-0.002 c 0.0106,-0.006 0.021,-0.0162 0.0293,-0.0332 0.008,-0.0161 0.0154,-0.0327 0.0234,-0.0488 0.016,-0.0303 0.0304,-0.0618 0.0469,-0.0918 0.007,-0.013 0.0109,-0.0245 0.0117,-0.0352 v -0.002 c 0.009,-0.007 0.0186,-0.0107 0.0254,-0.0254 0.0111,-0.024 0.0231,-0.0478 0.0332,-0.0723 0.0157,-0.0349 0.0301,-0.0696 0.0371,-0.10743 v -0.002 c 4.7e-4,-0.003 0.002,-0.005 0.002,-0.008 0.0143,-0.0268 0.0292,-0.0535 0.0391,-0.082 0.007,-0.0205 0.01,-0.0419 0.0156,-0.0625 0.0212,0.002 0.0439,-0.018 0.0449,-0.0606 5e-4,-0.0299 0.008,-0.0572 0.0156,-0.0859 0.0108,-0.0374 0.027,-0.074 0.043,-0.10937 0.0163,-0.0383 0.031,-0.076 0.0449,-0.11524 0.012,-0.0329 0.0278,-0.0661 0.043,-0.0976 0.0136,-0.0301 0.025,-0.059 0.041,-0.0879 0.0134,-0.0264 0.0279,-0.0537 0.041,-0.0801 0.0153,-0.0267 0.0321,-0.0521 0.0488,-0.0781 0.0288,-0.0466 0.0564,-0.0941 0.082,-0.14258 0.0206,-0.037 0.0391,-0.0757 0.0586,-0.11328 0.0212,-0.042 0.0408,-0.0851 0.0625,-0.12695 0.0276,-0.0532 0.0513,-0.10671 0.0742,-0.16211 0.0255,-0.0618 0.0568,-0.12339 0.0859,-0.18359 0.0226,-0.0474 0.0433,-0.0946 0.0644,-0.14258 0.0206,-0.0468 -0.002,-0.0781 -0.0293,-0.0762 -0.005,3.2e-4 -0.009,0.002 -0.0137,0.004 0.002,-0.0146 -0.0109,-0.02 -0.01,-0.0371 0.0576,-0.0999 0.11808,-0.19708 0.19531,-0.2832 0.0704,-0.0785 0.0412,-0.14899 -0.0176,-0.15625 -0.004,-4.8e-4 -0.008,-9e-5 -0.0117,0 -0.0303,6.5e-4 -0.0675,0.0165 -0.10156,0.0547 -0.11824,0.13257 -0.20226,0.29138 -0.28906,0.44531 -0.0824,0.15244 -0.1558,0.30887 -0.23047,0.46484 0.016,-0.0442 0.034,-0.0978 0.041,-0.11718 0.0101,-0.0294 0.0291,-0.0798 0.0371,-0.11328 0.002,-0.0102 0.004,-0.0209 0.006,-0.0312 0.002,-0.01 0.003,-0.0198 0.002,-0.0273 0.008,-0.0124 0.0158,-0.0246 0.0234,-0.0371 0.21755,-0.36711 0.44827,-0.72773 0.65039,-1.10351 0.18396,-0.34202 0.0484,-0.57364 -0.1582,-0.58594 z m 199.76758,0.76953 c -0.11252,-0.008 -0.19531,0.10744 -0.10156,0.28906 0.0215,0.0417 0.0673,0.13047 0.0918,0.16797 0.0706,0.10811 0.17195,0.23962 0.24805,0.3418 0.14319,0.1922 0.14082,0.18865 0.28125,0.38086 0.20514,0.27152 0.39954,0.5497 0.57422,0.8418 0.0693,0.12136 0.13806,0.24459 0.19336,0.37304 0.12934,0.30036 0.43331,0.16702 0.30273,-0.13281 -0.0616,-0.14139 -0.13569,-0.27667 -0.21289,-0.41016 -0.1801,-0.30061 -0.38041,-0.58772 -0.59179,-0.86718 -0.1392,-0.1905 -0.14142,-0.19452 -0.28321,-0.38477 -0.0374,-0.0501 -0.18131,-0.23919 -0.22461,-0.30469 -0.0125,-0.0189 -0.0569,-0.10431 -0.0723,-0.13281 -0.0582,-0.10793 -0.13757,-0.15712 -0.20508,-0.16211 z m -200.44531,1.20899 c -0.007,0.0203 -0.0135,0.0409 -0.0215,0.0605 l -0.002,-0.002 c -0.004,-0.001 -0.009,-0.001 -0.0137,0 0.0125,-0.0195 0.0245,-0.0392 0.0371,-0.0586 z m 199.25586,126.57226 c -0.0464,2.6e-4 -0.10053,0.0344 -0.14063,0.11133 -0.0594,0.11412 -0.11539,0.22833 -0.17969,0.33984 -0.0798,0.14114 -0.16344,0.27959 -0.24804,0.41797 0.0203,-0.0702 0.0387,-0.14953 -0.0332,-0.14453 -0.045,0.003 -0.10089,0.0275 -0.15429,0.0762 -0.006,0.006 -0.0135,0.0116 -0.0195,0.0176 0.0633,-0.11514 0.12775,-0.22963 0.18945,-0.3457 0.14248,-0.26799 0.0202,-0.46513 -0.14258,-0.45313 -0.0852,0.006 -0.18096,0.0707 -0.25586,0.21094 -0.39337,0.73669 -0.78694,1.47343 -1.20703,2.19531 -0.18424,0.30082 -0.37363,0.59845 -0.56836,0.89258 -0.25531,0.38563 0.13545,0.64352 0.39063,0.25781 0.043,-0.0649 0.0826,-0.13196 0.125,-0.19726 -0.009,0.0242 -0.0181,0.0481 -0.0274,0.0723 -0.0292,0.0713 -0.0595,0.14129 -0.0879,0.21289 -0.0852,0.21521 0.13355,0.30268 0.21875,0.0879 0.007,-0.0186 0.0145,-0.0378 0.0215,-0.0566 0.0505,0.0515 0.15213,0.0322 0.21093,-0.0937 0.0602,-0.12905 0.11954,-0.25859 0.18164,-0.38672 0.0503,-0.10686 0.10391,-0.21176 0.16211,-0.31445 0.0485,-0.069 0.0943,-0.14009 0.13672,-0.21289 0.0533,-0.10996 0.11289,-0.21609 0.17969,-0.31836 0.0669,-0.10446 0.13121,-0.21014 0.19531,-0.3164 0.0768,-0.12546 0.15828,-0.24764 0.23828,-0.3711 0.10321,-0.15862 0.2132,-0.31146 0.3125,-0.47265 0.13081,-0.2125 0.26197,-0.42534 0.38477,-0.64258 0.0657,-0.11381 0.12289,-0.23118 0.18359,-0.34766 0.0668,-0.12815 0.011,-0.21918 -0.0664,-0.21875 z m -196.50782,0.80469 c -0.15473,-0.005 -0.27103,0.17369 -0.14453,0.43359 0.0573,0.11762 0.11066,0.23644 0.18946,0.3418 0.12958,0.16244 0.27979,0.30782 0.40429,0.47461 0.007,0.009 0.0116,0.0203 0.0176,0.0293 0.007,0.0185 0.0154,0.0363 0.0234,0.0547 0.0943,0.20506 0.18941,0.41003 0.30273,0.60547 0.0618,0.10667 0.0858,0.1401 0.15235,0.24219 0.10134,0.14925 0.0497,0.076 0.15234,0.21875 0.13505,0.18772 0.32461,0.051 0.18945,-0.13672 -0.0174,-0.024 -0.0154,-0.0235 -0.0254,-0.0371 0.20798,0.0368 0.36672,-0.10425 0.14258,-0.36328 -0.10068,-0.11634 -0.18157,-0.24705 -0.25977,-0.37891 -0.0893,-0.17534 -0.19924,-0.33814 -0.31054,-0.5 -0.12557,-0.17905 -0.28772,-0.32633 -0.42188,-0.49804 -0.0553,-0.0804 -0.0941,-0.17042 -0.13672,-0.25782 -0.0759,-0.15591 -0.18259,-0.22551 -0.27539,-0.22851 z M 402.886,317.81484 c -0.0585,0.003 -0.12705,0.0402 -0.18945,0.1211 -0.41488,0.53754 -0.82693,1.07659 -1.28125,1.58203 -0.0748,0.0764 -0.14555,0.15607 -0.21875,0.23437 -0.0823,0.044 -0.16162,0.0928 -0.28516,0.15625 -0.015,0.008 -0.0299,0.0154 -0.0449,0.0234 0.0509,-0.0417 0.11113,-0.0713 0.16015,-0.11523 0.19906,-0.17767 0.21736,-0.20813 0.39649,-0.4043 0.19257,-0.2209 0.36577,-0.45868 0.51172,-0.71289 0.0469,-0.0816 0.0891,-0.16379 0.13476,-0.24609 0.0656,-0.10979 0.0344,-0.0598 0.0977,-0.1543 0.11631,-0.17513 0.043,-0.31436 -0.0723,-0.31836 -0.008,0 -0.0154,1e-4 -0.0234,0.002 -0.0582,0.007 -0.12319,0.0476 -0.17969,0.13282 -0.0738,0.11139 -0.036,0.0525 -0.10938,0.17578 -0.0439,0.0791 -0.086,0.15968 -0.13086,0.23828 -0.13437,0.23555 -0.29476,0.45547 -0.47265,0.66015 -0.16614,0.18313 -0.18122,0.20824 -0.36719,0.375 -0.33589,0.3012 -0.71684,0.54266 -1.0957,0.78516 -0.8109,0.51007 0.0917,-0.0568 -0.7168,0.44727 -0.2694,0.1676 -0.5397,0.3368 -0.79687,0.52343 -0.044,0.032 -0.086,0.068 -0.12891,0.10157 -0.2573,0.20182 -0.0294,0.42567 0.23437,0.23242 0.22474,-0.16462 0.46636,-0.30376 0.70118,-0.45313 0.0197,-0.005 0.0408,-0.0134 0.0625,-0.0234 0.0336,0.0417 0.12027,0.0258 0.20117,0.0117 -0.013,0.0119 -0.0259,0.0236 -0.0391,0.0352 -0.003,0.003 -0.005,0.006 -0.008,0.008 -0.002,0.002 -0.004,0.002 -0.006,0.004 -0.005,0.004 -0.01,0.009 -0.0156,0.0117 l 0.002,0.002 c -0.0759,0.0857 -0.0231,0.17629 0.0645,0.14649 v 0.002 c 0.003,-0.002 0.005,-0.003 0.008,-0.004 0.001,-0.002 0.003,-1.5e-4 0.004,-0.002 0.009,-0.004 0.0164,-0.01 0.0254,-0.0156 0.006,-0.005 0.0135,-0.009 0.0195,-0.0137 0.0218,-0.0186 0.0433,-0.0373 0.0644,-0.0566 0.006,-0.005 0.0116,-0.0106 0.0176,-0.0156 0.0222,-0.0196 0.0453,-0.0382 0.0684,-0.0566 0.0127,-0.0101 0.0262,-0.0193 0.0391,-0.0293 0.004,0.0517 0.0615,0.0858 0.14648,0.0391 0.14043,-0.0771 0.27029,-0.17132 0.40235,-0.26172 0.11679,-0.0813 0.23751,-0.15973 0.35742,-0.23633 0.0892,-0.0588 0.18494,-0.10685 0.27734,-0.16015 0.064,-0.0435 0.13565,-0.0729 0.20117,-0.11328 0.0215,-0.0132 0.0414,-0.027 0.0625,-0.041 0.022,-0.0157 0.0447,-0.0308 0.0664,-0.0469 0.14248,-0.10533 0.002,-0.006 0.14649,-0.11133 0.0683,-0.0496 0.13898,-0.0975 0.20898,-0.14453 0.29219,-0.19744 0.58642,-0.39184 0.88086,-0.58594 0.0625,-0.0411 0.0762,-0.0936 0.0606,-0.12891 0.0519,-0.0377 0.1066,-0.0714 0.1582,-0.10937 0.0665,-0.0505 0.13272,-0.10185 0.19922,-0.15235 0.195,-0.14835 0.13255,-0.33418 -0.0215,-0.33398 -0.0508,1e-4 -0.11138,0.0218 -0.17578,0.0703 h -0.002 c -0.0119,-0.0106 -0.0271,-0.0177 -0.0449,-0.0176 -0.0293,2e-4 -0.0645,0.0159 -0.0977,0.0547 -0.0117,0.0137 -0.0234,0.0274 -0.0352,0.041 0.21969,-0.27435 0.43565,-0.55188 0.6504,-0.83008 0.13615,-0.17798 0.0565,-0.32927 -0.0723,-0.32227 z m -127.67578,0.67188 c -0.0877,0.0143 -0.11884,0.13463 0,0.24023 0.0939,0.0835 0.20653,0.13999 0.31055,0.20899 -0.0311,-0.0135 -0.0729,-0.0328 -0.0996,-0.0449 -0.25748,-0.11624 -0.28345,-0.14228 -0.47071,-0.27344 -0.0335,-0.0232 -0.0653,-0.0334 -0.0918,-0.0332 -0.0796,7e-4 -0.11361,0.0896 -0.0137,0.16015 0.19753,0.13908 0.22805,0.17026 0.49805,0.29297 0.21234,0.0965 0.55932,0.22716 0.87695,0.34961 -0.0106,0.0125 -0.0176,0.0299 -0.0156,0.0488 -0.002,-1.1e-4 -0.008,-10e-6 -0.01,0 -0.001,1e-5 -0.003,-6e-5 -0.004,0 -0.009,-0.004 -0.0181,-0.007 -0.0274,-0.01 -0.0408,-0.0146 -0.0767,-0.0206 -0.10742,-0.0176 -0.0777,0.008 -0.003,0.0782 0.0117,0.13672 -0.0333,-0.0223 -0.062,-0.0313 -0.0859,-0.0293 -0.0719,0.006 -0.0882,0.10252 0.0117,0.17382 0.005,0.003 0.0106,0.007 0.0156,0.01 0.0824,0.0588 0.1502,0.0268 0.1582,-0.0273 0.0306,0.0111 0.061,0.0229 0.0918,0.0332 0.004,0.002 0.006,0.003 0.01,0.004 -0.005,10e-4 0.006,0.01 0.002,0.0117 -0.005,0 -0.009,3.2e-4 -0.0137,0.002 -0.0805,0.0142 -0.0861,0.11942 0.0312,0.16992 0.0601,0.0258 0.11874,0.056 0.17774,0.084 0.003,0.001 0.005,0.003 0.008,0.004 0.005,0.003 0.009,0.005 0.0137,0.008 0.0585,0.0335 0.11704,0.0664 0.17774,0.0957 10e-4,10e-4 0.003,1.5e-4 0.004,0.002 0.0221,0.0176 0.0423,0.0373 0.0645,0.0547 0.14548,0.10453 0.29608,0.20026 0.44921,0.29296 0.0804,0.0462 0.15693,0.10064 0.23633,0.14844 0.0995,0.0593 0.19868,0.12004 0.29688,0.18164 0.002,0.001 0.004,0.003 0.006,0.004 l 0.0234,0.0176 c 0.0488,0.0366 0.0989,0.0699 0.14844,0.10547 0.0194,0.014 0.0374,0.0204 0.0547,0.0254 0.006,0.004 0.0116,0.008 0.0176,0.0117 l 0.002,0.002 c 0.0184,0.0168 0.0386,0.0316 0.0547,0.0508 0.006,0.007 0.002,-0.0102 0.008,-0.006 0.0944,0.0678 0.19121,0.13302 0.28711,0.19922 0.0913,0.0652 0.18398,0.13203 0.26758,0.20703 0.12167,0.10923 0.23143,-0.0142 0.10937,-0.12305 -0.089,-0.0794 -0.18405,-0.1518 -0.28125,-0.2207 -0.1079,-0.0744 -0.21824,-0.14556 -0.32422,-0.22266 0.11598,0.0582 0.23162,0.11769 0.34766,0.17579 0.0583,0.0296 0.0283,0.0155 0.0859,0.043 0.1476,0.0705 0.21916,-0.08 0.0723,-0.15039 -0.0542,-0.0258 -0.0259,-0.0115 -0.084,-0.041 -0.10208,-0.0511 -0.2044,-0.103 -0.30664,-0.1543 0.0207,-0.0321 0.10634,-0.007 0.0508,-0.0566 -0.0521,-0.0466 -0.10495,-0.0951 -0.15625,-0.14258 -0.11736,-0.10151 -0.2327,-0.20437 -0.35742,-0.29687 -0.0238,-0.0176 -0.0479,-0.0357 -0.0723,-0.0527 0.13677,0.0421 0.27361,0.0836 0.41016,0.12696 0.26253,0.0803 0.51953,0.17433 0.77539,0.27343 0.11866,0.0451 0.18196,7e-4 0.19336,-0.0645 0.48542,0.18265 0.97095,0.36669 1.44531,0.57617 0.0704,0.0311 0.13899,0.0637 0.20899,0.0957 0.17846,0.0832 0.3392,0.19593 0.49218,0.31835 0.12767,0.10217 0.22925,-0.0269 0.10157,-0.1289 -0.16565,-0.13206 -0.33222,-0.24935 -0.52539,-0.33985 -0.0712,-0.0324 -0.1413,-0.066 -0.2129,-0.0976 -0.34865,-0.15401 -0.70253,-0.29382 -1.05859,-0.42969 0.0797,-0.0394 0.10904,-0.12631 -0.0352,-0.19141 -0.19024,-0.0863 -0.38075,-0.16878 -0.57812,-0.23828 -0.84754,-0.3182 -1.6997,-0.62682 -2.54492,-0.95117 -0.14667,-0.0592 -0.29535,-0.11253 -0.43946,-0.17773 -0.20253,-0.0917 -0.37993,-0.22034 -0.54492,-0.36719 -0.054,-0.0476 -0.10658,-0.0626 -0.14648,-0.0566 z m 1.59765,1.13867 c 0.007,0.003 0.0223,0.009 0.0293,0.0117 0.009,0.004 0.0271,0.01 0.0371,0.0137 -0.0211,-0.006 -0.0391,-0.0116 -0.0586,-0.0176 z" />
    </clipPath>
    <clipPath
       clipPathUnits="userSpaceOnUse"
       id="clipPath2276">
      <path
         id="path2278"
         style="fill:#ff0000;fill-opacity:1;fill-rule:nonzero;stroke:none"
         d="M 102.13477,38.025391 V 452.01562 H 576 V 38.025391 Z M 238.96094,155.625 c 0.0152,0.003 0.0156,0.0291 0.0234,0.0469 0.004,-0.004 0.009,-0.007 0.0137,-0.008 0.0191,-0.003 0.0369,0.0185 0.0254,0.0527 -0.0216,0.0638 -0.0438,0.1255 -0.0703,0.1875 -0.0362,0.0785 -0.0756,0.15652 -0.11718,0.23242 -0.0165,0.0298 -0.0327,0.0598 -0.0488,0.0898 -0.011,0.0253 -0.0217,0.0508 -0.0332,0.0762 -0.0344,0.0756 -0.0697,0.1465 -0.10547,0.21875 -0.001,0.003 -0.003,0.005 -0.004,0.008 -0.0184,0.0428 -0.0367,0.0857 -0.0547,0.1289 -0.035,0.0825 -0.0721,0.1655 -0.11132,0.2461 -0.0343,0.072 -0.0686,0.14329 -0.0996,0.21679 -0.0312,0.0752 -0.0609,0.15207 -0.0937,0.22657 -0.0358,0.084 -0.0711,0.1679 -0.11133,0.25 -0.0391,0.0827 -0.0759,0.1665 -0.11328,0.25 -0.0196,0.0415 -0.0377,0.0877 -0.0645,0.125 -0.002,0.003 -0.0126,0.0117 -0.0156,0.0137 -0.044,0.037 -0.0792,-0.009 -0.0352,-0.0469 0.001,-10e-4 0.009,-0.006 0.01,-0.008 0.003,-0.004 0.006,-0.009 0.008,-0.0137 0.0147,-0.029 0.0273,-0.0585 0.041,-0.0879 -0.008,0.0137 -0.0167,0.0247 -0.0332,0.0469 -0.0141,0.0191 -0.0288,0.0393 -0.0488,0.0527 -0.048,0.0321 -0.0767,-0.0152 -0.0313,-0.0508 0.0131,-0.0102 0.0232,-0.0239 0.0332,-0.0371 0.0232,-0.0317 0.0288,-0.0488 0.041,-0.0742 -0.01,-0.008 -0.0126,-0.026 -0.004,-0.0488 0.008,-0.0177 0.0168,-0.0352 0.0254,-0.0527 -0.002,3.6e-4 -0.004,3e-5 -0.006,0 -0.0151,0.0318 -0.0302,0.0634 -0.0449,0.0957 -0.0162,0.0354 -0.0466,0.0368 -0.0566,0.0176 -0.001,0.003 -0.002,0.007 -0.004,0.01 -0.007,0.015 -0.0145,0.0299 -0.0215,0.0449 -0.0244,0.0524 -0.0771,0.027 -0.0527,-0.0254 0.007,-0.0149 0.0145,-0.03 0.0215,-0.0449 0.0196,-0.0422 0.0392,-0.0848 0.0586,-0.12695 -0.0896,0.10331 -0.17907,0.20678 -0.26758,0.31055 -0.0374,0.044 -0.0805,0.005 -0.043,-0.0391 0.13179,-0.15448 0.26342,-0.30798 0.39649,-0.46093 0.0117,-0.0262 0.0238,-0.0518 0.0351,-0.0781 0.0116,-0.0264 0.0223,-0.0533 0.0332,-0.0801 -0.001,-0.005 -7.5e-4,-0.0123 0,-0.0195 0.0114,-0.10306 0.0428,-0.20227 0.0684,-0.30273 -0.007,0.0118 -0.0125,0.0239 -0.0195,0.0351 -0.03,0.0494 -0.0689,0.008 -0.041,-0.043 0.0381,-0.0691 0.0751,-0.13738 0.11133,-0.20703 3.7e-4,-10e-4 -3.8e-4,-0.003 0,-0.004 0.0109,-0.0266 0.0216,-0.0537 0.0332,-0.0801 -0.0259,0.008 -0.0458,-0.0142 -0.0215,-0.0488 5.2e-4,-7.5e-4 0.001,-0.001 0.002,-0.002 -5e-4,-0.003 -0.004,-0.002 -0.004,-0.006 0,-0.003 -5.9e-4,-0.007 0,-0.01 0.008,-0.0425 0.0278,-0.0809 0.0469,-0.11914 0.005,-0.0101 0.0477,-0.0945 0.0527,-0.10351 0.0331,-0.0629 0.0673,-0.1242 0.0996,-0.1875 0.01,-0.0193 0.0236,-0.0291 0.0352,-0.0293 0.0137,-0.0373 0.0269,-0.0754 0.0391,-0.11328 0.007,-0.0206 0.0178,-0.0337 0.0293,-0.0371 0.0192,-0.006 0.0371,0.0121 0.0273,0.0469 -0.001,0.004 -0.003,0.009 -0.004,0.0137 0.007,8e-4 0.0136,0.003 0.0176,0.01 0.009,-0.0353 0.0195,-0.0704 0.0293,-0.10547 0.006,-0.0195 0.0116,-0.039 0.0176,-0.0586 0.003,-0.0108 0.0102,-0.01 0.0156,-0.0156 0.001,-0.007 3.6e-4,-0.0147 0.002,-0.0195 9.1e-4,-0.008 -1.6e-4,-0.0155 0,-0.0234 6.5e-4,-0.0289 0.017,-0.043 0.0312,-0.043 0.0146,0 0.0278,0.0141 0.0273,0.043 -1.7e-4,0.008 9.2e-4,0.0174 0,0.0254 -0.001,0.0136 -0.005,0.0302 -0.008,0.0469 0.004,-0.006 0.006,-0.0115 0.01,-0.0176 0.01,-0.0153 0.0212,-0.0238 0.0312,-0.0254 0.0225,-0.004 0.0385,0.0229 0.0176,0.0566 -0.0116,0.0186 -0.0203,0.0352 -0.0312,0.0527 0.005,0.005 0.003,0.0163 0.004,0.0254 0.004,-0.003 0.008,-0.005 0.0117,-0.006 0.003,-5.8e-4 0.005,-3e-4 0.008,0 0.0276,-0.0864 0.0546,-0.17291 0.082,-0.25977 0.007,-0.0207 0.0178,-0.0327 0.0293,-0.0352 0.0192,-0.004 0.0382,0.0163 0.0273,0.0508 -0.0215,0.0682 -0.043,0.13665 -0.0644,0.20508 0.005,-0.004 0.009,-0.007 0.0137,-0.008 0.003,-6.6e-4 0.005,-2.6e-4 0.008,0 0.0406,-0.0965 0.0811,-0.19306 0.12305,-0.28906 0.0159,-0.0363 0.0458,-0.0511 0.0684,-0.0566 z m -0.95899,1.88477 c -0.009,0.0207 -0.018,0.0418 -0.0273,0.0625 0.002,-5.1e-4 0.004,-0.002 0.006,-0.002 0.007,-3.6e-4 0.003,0.0143 0.008,0.0195 0.009,-0.0124 0.0155,-0.0262 0.0215,-0.041 0.004,-0.009 0.007,-0.0196 0.01,-0.0293 v -0.002 c -0.005,-0.004 -0.02,0.007 -0.0176,-0.008 z M 437.67188,282.6875 c 0.0774,-4.3e-4 0.13318,0.0906 0.0664,0.21875 -0.0607,0.11648 -0.11789,0.23385 -0.18359,0.34766 -0.1228,0.21724 -0.25396,0.43007 -0.38477,0.64257 -0.0993,0.16119 -0.20929,0.31404 -0.3125,0.47266 -0.08,0.12346 -0.16148,0.24563 -0.23828,0.37109 -0.0641,0.10626 -0.12841,0.21195 -0.19531,0.31641 -0.0668,0.10227 -0.12639,0.2084 -0.17969,0.31836 -0.0424,0.0728 -0.0882,0.14389 -0.13672,0.21289 -0.0582,0.10269 -0.11181,0.20759 -0.16211,0.31445 -0.0621,0.12813 -0.12144,0.25767 -0.18164,0.38672 -0.0588,0.12604 -0.16042,0.14676 -0.21094,0.0937 -0.007,0.0188 -0.0141,0.038 -0.0215,0.0566 -0.0852,0.21496 -0.30395,0.12762 -0.21875,-0.0879 0.0284,-0.0716 0.0587,-0.14159 0.0879,-0.21289 0.009,-0.0242 0.0179,-0.0481 0.0273,-0.0723 -0.0424,0.0653 -0.082,0.13235 -0.125,0.19726 -0.25518,0.38571 -0.64593,0.12782 -0.39062,-0.25781 0.19473,-0.29413 0.38412,-0.59176 0.56836,-0.89258 0.42009,-0.72188 0.81366,-1.45862 1.20703,-2.19531 0.0749,-0.14024 0.17061,-0.20467 0.25586,-0.21094 0.16275,-0.012 0.28506,0.18514 0.14258,0.45313 -0.0617,0.11607 -0.12615,0.23056 -0.18946,0.3457 0.006,-0.006 0.0131,-0.0117 0.0195,-0.0176 0.0534,-0.0487 0.10929,-0.0729 0.15429,-0.0762 0.0719,-0.005 0.0535,0.0743 0.0332,0.14453 0.0846,-0.13838 0.16829,-0.27683 0.24804,-0.41797 0.0643,-0.11151 0.12029,-0.22572 0.17969,-0.33984 0.0401,-0.0769 0.0942,-0.11107 0.14063,-0.11133 z m -196.50782,0.80469 c 0.0928,0.003 0.19949,0.0726 0.27539,0.22851 0.0426,0.0874 0.0814,0.17742 0.13672,0.25782 0.13416,0.17171 0.29631,0.31899 0.42188,0.49804 0.1113,0.16186 0.22124,0.32466 0.31054,0.5 0.0782,0.13186 0.15909,0.26257 0.25977,0.37891 0.22414,0.25903 0.0654,0.40007 -0.14258,0.36328 0.01,0.0136 0.008,0.0131 0.0254,0.0371 0.13516,0.18767 -0.0544,0.32444 -0.18945,0.13672 -0.10268,-0.14276 -0.051,-0.0695 -0.15234,-0.21875 -0.0665,-0.10209 -0.0905,-0.13552 -0.15235,-0.24219 -0.11332,-0.19544 -0.20843,-0.40041 -0.30273,-0.60547 -0.008,-0.0184 -0.0159,-0.0362 -0.0234,-0.0547 -0.006,-0.009 -0.0111,-0.0199 -0.0176,-0.0293 -0.1245,-0.16679 -0.27472,-0.31217 -0.4043,-0.47461 -0.0788,-0.10536 -0.13215,-0.22418 -0.18945,-0.3418 -0.1265,-0.2599 -0.0102,-0.43867 0.14453,-0.43359 z m 161.72266,34.32226 c 0.12877,-0.007 0.20721,0.14429 0.0723,0.32227 -0.21475,0.2782 -0.4307,0.55573 -0.65039,0.83008 0.0118,-0.0136 0.0235,-0.0273 0.0352,-0.041 0.0332,-0.0388 0.0684,-0.0545 0.0977,-0.0547 0.0178,-1e-4 0.033,0.007 0.0449,0.0176 h 0.002 c 0.0644,-0.0485 0.12498,-0.0702 0.17578,-0.0703 0.15387,-2e-4 0.21619,0.18563 0.0215,0.33398 -0.0665,0.0505 -0.13272,0.10185 -0.19922,0.15235 -0.0516,0.038 -0.10632,0.0717 -0.15821,0.10937 0.0156,0.0353 0.002,0.0878 -0.0605,0.12891 -0.29444,0.1941 -0.58867,0.3885 -0.88086,0.58594 -0.07,0.047 -0.14069,0.0949 -0.20899,0.14453 -0.14454,0.10487 -0.004,0.006 -0.14648,0.11133 -0.0217,0.0161 -0.0444,0.0312 -0.0664,0.0469 -0.0211,0.014 -0.041,0.0278 -0.0625,0.041 -0.0657,0.0404 -0.13717,0.0698 -0.20117,0.11328 -0.0924,0.0533 -0.18814,0.10135 -0.27734,0.16015 -0.11991,0.0766 -0.24063,0.15503 -0.35742,0.23633 -0.13206,0.0904 -0.26192,0.18462 -0.40235,0.26172 -0.085,0.0467 -0.14229,0.0126 -0.14648,-0.0391 -0.0129,0.01 -0.0264,0.0192 -0.0391,0.0293 -0.0231,0.0184 -0.0462,0.037 -0.0684,0.0566 -0.006,0.005 -0.0118,0.0103 -0.0176,0.0156 -0.0212,0.0193 -0.0427,0.038 -0.0645,0.0566 -0.006,0.005 -0.0134,0.009 -0.0195,0.0137 -0.009,0.006 -0.0168,0.0118 -0.0254,0.0156 -0.001,7e-4 -0.003,-0.001 -0.004,0.002 -0.003,10e-4 -0.005,0.002 -0.008,0.004 v -0.002 c -0.0876,0.0298 -0.13881,-0.0608 -0.0645,-0.14648 l -0.002,-0.002 c 0.006,-0.003 0.0106,-0.008 0.0156,-0.0117 0.002,-0.002 0.004,-0.002 0.006,-0.004 0.003,-0.002 0.005,-0.005 0.008,-0.008 0.0132,-0.0116 0.0261,-0.0233 0.0391,-0.0352 -0.0809,0.0141 -0.16757,0.03 -0.20117,-0.0117 -0.0217,0.01 -0.0428,0.0182 -0.0625,0.0234 -0.23482,0.14937 -0.47644,0.28851 -0.70118,0.45313 -0.2638,0.19325 -0.49167,-0.0306 -0.23437,-0.23242 0.0429,-0.0336 0.0849,-0.0696 0.1289,-0.10157 0.25717,-0.18663 0.52748,-0.35614 0.79688,-0.52343 0.80855,-0.50403 -0.0941,0.0628 0.7168,-0.44727 0.37886,-0.2425 0.75981,-0.48396 1.0957,-0.78516 0.18597,-0.16676 0.20105,-0.19187 0.36719,-0.375 0.17789,-0.20468 0.3381,-0.4246 0.47265,-0.66015 0.0449,-0.0786 0.087,-0.15918 0.13086,-0.23828 0.0734,-0.12329 0.0356,-0.0644 0.10938,-0.17579 0.0565,-0.0852 0.12146,-0.12555 0.17969,-0.13281 0.008,-10e-4 0.0157,-0.002 0.0234,-0.002 0.11528,0.004 0.18768,0.14323 0.0723,0.31836 -0.0633,0.0945 -0.0321,0.0445 -0.0977,0.15429 -0.0457,0.0823 -0.0879,0.1645 -0.13476,0.2461 -0.14595,0.25421 -0.31915,0.49199 -0.51172,0.71289 -0.17913,0.19617 -0.19743,0.22663 -0.39649,0.4043 -0.0492,0.0439 -0.10927,0.0735 -0.16015,0.11523 0.015,-0.008 0.0299,-0.0157 0.0449,-0.0234 0.12354,-0.0634 0.20285,-0.11222 0.28516,-0.15625 0.0732,-0.0783 0.14395,-0.15797 0.21875,-0.23437 0.45432,-0.50544 0.86637,-1.04449 1.28125,-1.58203 0.0624,-0.0809 0.13092,-0.11786 0.18945,-0.1211 z m -127.67578,0.67188 c 0.0399,-0.006 0.0925,0.009 0.14648,0.0566 0.16499,0.14685 0.34221,0.27549 0.54492,0.36719 0.14411,0.0652 0.29279,0.11853 0.43946,0.17773 0.84522,0.32435 1.69738,0.63297 2.54492,0.95117 0.19737,0.0695 0.3877,0.15198 0.57812,0.23828 0.14352,0.0651 0.11364,0.15203 0.0352,0.19141 0.35606,0.13587 0.70976,0.27568 1.05859,0.42969 0.0716,0.0316 0.14169,0.0652 0.21289,0.0976 0.19317,0.0905 0.35975,0.20779 0.5254,0.33985 0.12737,0.10196 0.0261,0.23107 -0.10157,0.1289 -0.15298,-0.12242 -0.31373,-0.23516 -0.49219,-0.31836 -0.07,-0.032 -0.13858,-0.0646 -0.20898,-0.0957 -0.47436,-0.20948 -0.95989,-0.39352 -1.44531,-0.57617 -0.0114,0.0643 -0.0747,0.10807 -0.19336,0.0645 -0.25586,-0.0991 -0.51286,-0.19314 -0.77539,-0.27344 -0.13655,-0.0434 -0.27339,-0.0849 -0.41016,-0.12695 0.0244,0.017 0.0485,0.0351 0.0723,0.0527 0.12472,0.0925 0.24006,0.19536 0.35742,0.29687 0.0513,0.0475 0.10415,0.096 0.15625,0.14258 0.0559,0.0499 -0.0301,0.0245 -0.0508,0.0566 0.10224,0.0513 0.20456,0.10324 0.30664,0.1543 0.0581,0.0295 0.0298,0.0152 0.084,0.041 0.14758,0.0704 0.0753,0.22089 -0.0723,0.15039 -0.0576,-0.0275 -0.0276,-0.0134 -0.0859,-0.043 -0.11604,-0.0581 -0.23168,-0.11754 -0.34766,-0.17578 0.10598,0.0771 0.21632,0.14822 0.32422,0.22266 0.0972,0.0689 0.19225,0.1413 0.28125,0.2207 0.12206,0.10882 0.0123,0.23228 -0.10937,0.12305 -0.0836,-0.075 -0.17628,-0.14183 -0.26758,-0.20703 -0.0959,-0.0662 -0.19268,-0.13146 -0.28711,-0.19922 -0.006,-0.006 -0.002,0.01 -0.008,0.006 -0.0161,-0.0192 -0.0363,-0.034 -0.0547,-0.0508 l -0.002,-0.002 c -0.006,-0.004 -0.0119,-0.008 -0.0176,-0.0117 -0.0173,-0.005 -0.0353,-0.0114 -0.0547,-0.0254 -0.0495,-0.0356 -0.0996,-0.0689 -0.14844,-0.10546 -0.008,-0.006 -0.0156,-0.0117 -0.0234,-0.0176 -0.002,-0.001 -0.004,-0.003 -0.006,-0.004 -0.0982,-0.0616 -0.19734,-0.12234 -0.29688,-0.18164 -0.0794,-0.0478 -0.15593,-0.10224 -0.23633,-0.14844 -0.15331,-0.0927 -0.30404,-0.18844 -0.44921,-0.29297 -0.0222,-0.0174 -0.0424,-0.0371 -0.0645,-0.0547 -10e-4,-6.2e-4 -0.003,4e-4 -0.004,-0.002 -0.0607,-0.0293 -0.11924,-0.0622 -0.17774,-0.0957 -0.005,-0.003 -0.009,-0.005 -0.0137,-0.008 -0.003,-10e-4 -0.005,-0.003 -0.008,-0.004 -0.059,-0.028 -0.11764,-0.0582 -0.17774,-0.084 -0.11738,-0.0505 -0.11322,-0.15571 -0.0312,-0.16992 0.005,-8e-4 0.009,-0.002 0.0137,-0.002 0.004,-0.002 -0.007,-0.0105 -0.002,-0.0117 -0.004,-10e-4 -0.006,0.001 -0.01,-0.002 -0.0308,-0.0103 -0.0612,-0.0221 -0.0918,-0.0332 -0.008,0.0541 -0.0758,0.0861 -0.1582,0.0273 -0.005,-0.003 -0.0106,-0.007 -0.0156,-0.01 -0.0999,-0.0713 -0.0836,-0.16825 -0.0117,-0.17383 0.0239,-0.002 0.0526,0.007 0.0859,0.0293 -0.0152,-0.0585 -0.0894,-0.12877 -0.0117,-0.13672 0.0307,-0.003 0.0666,0.003 0.10742,0.0176 0.009,0.003 0.0181,0.006 0.0274,0.01 10e-4,-6e-5 0.003,10e-6 0.004,0 0.002,-10e-6 0.008,-1.1e-4 0.01,0 -0.002,-0.0189 0.005,-0.0363 0.0156,-0.0488 -0.31763,-0.12245 -0.66461,-0.25311 -0.87695,-0.34961 -0.27,-0.12271 -0.30052,-0.15389 -0.49805,-0.29297 -0.10027,-0.0706 -0.0659,-0.15945 0.0137,-0.16015 0.0265,-2.4e-4 0.0583,0.01 0.0918,0.0332 0.18726,0.13116 0.21323,0.1572 0.47071,0.27344 0.0267,0.0121 0.0685,0.0295 0.0996,0.043 -0.10402,-0.069 -0.2166,-0.12551 -0.31054,-0.20899 -0.11884,-0.1056 -0.0877,-0.22595 0,-0.24023 z m 1.59765,1.13867 0.008,0.008 c 0.0195,0.006 0.0375,0.0114 0.0586,0.0176 -0.01,-0.004 -0.0278,-0.0101 -0.0371,-0.0137 -0.007,-0.003 -0.0221,-0.009 -0.0293,-0.0117 z" />
    </clipPath>
  </defs>
  <sodipodi:namedview
     id="namedview316"
     pagecolor="#ffffff"
     bordercolor="#000000"
     borderopacity="0.25"
     inkscape:showpageshadow="2"
     inkscape:pageopacity="0"
     inkscape:pagecheckerboard="0"
     inkscape:deskcolor="#d1d1d1"
     showgrid="false"
     shape-rendering="auto"
     inkscape:lockguides="false"
     inkscape:zoom="0.94597233"
     inkscape:cx="244.72175"
     inkscape:cy="266.39257"
     inkscape:window-width="1920"
     inkscape:window-height="1017"
     inkscape:window-x="-8"
     inkscape:window-y="-8"
     inkscape:window-maximized="1"
     inkscape:current-layer="g320">
    <sodipodi:guide
       position="339.36138,222.51995"
       orientation="0,678"
       id="guide826"
       inkscape:locked="false" />
    <sodipodi:guide
       position="678,452"
       orientation="452,0"
       id="guide828"
       inkscape:locked="false" />
    <sodipodi:guide
       position="678,0"
       orientation="0,-678"
       id="guide830"
       inkscape:locked="false" />
    <sodipodi:guide
       position="336.37141,-0.98017188"
       orientation="-452,0"
       id="guide832"
       inkscape:locked="false" />
  </sodipodi:namedview>
  <g
     inkscape:groupmode="layer"
     inkscape:label="Image"
     id="g320">
    <path
       style="fill:#652f03;fill-opacity:1"
       d="m 184.50065,438.4607 c 3.53389,-7.45492 9.57027,-19.27082 13.41417,-26.25755 8.77383,-15.94743 13.94329,-28.84704 18.71608,-46.70315 3.32851,-12.45273 3.74374,-15.32623 3.75707,-26 0.0144,-11.50512 -0.11453,-12.2516 -3.12566,-18.10099 -1.72736,-3.35554 -4.20986,-7.40554 -5.51667,-9 -4.04259,-4.93243 -6.51596,-9.62428 -10.24934,-19.44249 -1.97772,-5.20109 -5.31647,-12.38152 -7.41943,-15.95652 -7.90491,-13.43818 -7.89392,-13.39969 -6.99311,-24.5 0.44634,-5.5 1.73509,-13.34457 2.86388,-17.43237 1.1288,-4.08781 2.05236,-8.67375 2.05236,-10.19098 0,-1.51724 0.45,-3.03673 1,-3.37665 0.55,-0.33992 1,-2.58992 1,-5 0,-2.41008 0.45,-4.66008 1,-5 0.55,-0.33992 1,-1.49758 1,-2.57259 0,-1.075 0.39476,-2.73594 0.87724,-3.69098 1.57263,-3.11287 3.12276,-8.82067 3.12276,-11.49841 0,-1.44099 0.45,-2.8981 1,-3.23802 0.55,-0.33992 1,-2.39148 1,-4.55902 0,-2.16754 0.41968,-3.94098 0.93261,-3.94098 0.51294,0 1.22066,-0.90755 1.57271,-2.01677 C 205.22989,177.70031 211.79593,174 215.1223,174 c 1.21109,0 4.06689,1.09291 6.34622,2.42868 2.27933,1.33578 4.56886,2.12328 5.08786,1.75 0.92453,-0.66495 2.9514,-4.17324 7.61382,-13.17868 1.28139,-2.475 2.6673,-4.65 3.0798,-4.83333 0.4125,-0.18334 0.75,-1.19584 0.75,-2.25 0,-1.05417 0.35905,-1.91667 0.7979,-1.91667 0.43884,0 3.23257,-4.8375 6.20827,-10.75 2.9757,-5.9125 5.76665,-10.9 6.2021,-11.08333 0.43545,-0.18334 0.79173,-0.88598 0.79173,-1.56144 0,-0.67546 0.7875,-2.10046 1.75,-3.16667 0.9625,-1.06621 2.33765,-3.06356 3.0559,-4.43856 1.89275,-3.62347 3.17209,-5.08188 8.1241,-9.26122 3.53624,-2.98447 5.25368,-3.73878 8.51265,-3.73878 3.30732,0 4.45853,-0.52225 6.0619,-2.75 1.08858,-1.5125 3.47743,-4.2125 5.30855,-6 3.18944,-3.11347 3.66239,-3.25 11.2581,-3.25 4.6192,0 7.9288,0.41742 7.9288,1 0,0.55 0.46517,1 1.0337,1 1.23986,0 6.56807,5.30531 7.18401,7.15312 0.28251,0.84753 -2.05278,2.29835 -6.64099,4.12576 -11.21484,4.4667 -25.55358,11.6446 -32.07672,16.05742 -8.48016,5.73673 -24.30623,21.80635 -30.19896,30.6637 -20.29594,30.5068 -24.71504,65.47502 -12.9213,102.24606 1.85389,5.78013 9.47474,21.12567 10.72059,21.58727 0.49482,0.18334 0.89967,0.79805 0.89967,1.36603 0,4.90918 29.90142,34.80064 34.81224,34.80064 0.65327,0 1.18776,0.34384 1.18776,0.7641 0,0.42025 1.6875,1.54733 3.75,2.50461 2.0625,0.95728 4.425,2.17727 5.25,2.71109 2.19088,1.41761 9.95856,4.69017 14,5.89826 1.925,0.57543 5.075,1.55782 7,2.18308 5.69525,1.84989 18.10688,3.89804 23.75,3.91919 5.88883,0.0221 5.95209,0.14286 4.20033,8.01967 -2.06239,9.27355 -7.32798,21.76475 -15.63993,37.10156 -7.01614,12.94584 -7.69827,15.24836 -13.7457,46.39844 l -4.27105,22 -62.10913,0.25756 -62.10912,0.25755 z m 191.0878,11.7893 c -0.30048,-0.9625 -2.35819,-11.2 -4.57268,-22.75 -5.58797,-29.14488 -6.30038,-31.50247 -13.44677,-44.5 -8.72377,-15.86638 -14.62237,-30.73272 -16.1686,-40.75 l -0.65602,-4.25 5.37781,-0.0197 c 5.75159,-0.0211 18.13342,-2.05334 23.87781,-3.91919 1.925,-0.62526 5.075,-1.60765 7,-2.18308 4.04144,-1.20809 11.80912,-4.48065 14,-5.89826 0.825,-0.53382 3.1875,-1.75381 5.25,-2.71109 2.0625,-0.95728 3.75,-2.08436 3.75,-2.50461 C 400,320.34384 400.53449,320 401.18776,320 406.09858,320 436,290.10854 436,285.19936 c 0,-0.56798 0.40485,-1.18269 0.89967,-1.36603 0.49481,-0.18333 2.76687,-4.0476 5.04901,-8.58727 C 454.48417,250.31032 457.44066,220.39711 450.07753,193 442.47029,164.69461 419.9511,136.75321 393.5,122.7996 c -6.2421,-3.29285 -25.33054,-11.44811 -27.94859,-11.94062 -1.6451,-0.30948 -1.1315,-1.18365 3.29762,-5.61277 5.53117,-5.531177 6.86553,-5.959519 16.65097,-5.34513 5.04888,0.317 7.6027,1.96507 11.72172,7.56444 2.70729,3.68027 3.85129,4.46327 6.56812,4.49548 6.47979,0.0768 13.23032,5.14366 17.39316,13.05503 0.72435,1.37661 2.50933,4.07366 3.96661,5.99345 1.45729,1.91979 5.02944,8.21552 7.93811,13.99052 2.90867,5.775 5.54135,10.725 5.85039,11 0.50578,0.45007 3.5797,6.12106 9.48576,17.5 1.14187,2.2 2.46409,4.28275 2.93827,4.62832 0.47418,0.34558 2.72418,-0.4365 5,-1.73795 4.84074,-2.76823 8.13371,-2.98745 12.4595,-0.82946 3.42025,1.70624 7.17836,6.32858 7.17836,8.82911 0,2.229 1.80314,9.54174 5.08189,20.60998 1.54781,5.225 3.55,13.55 4.44932,18.5 0.89931,4.95 2.31156,11.25 3.13832,14 0.82677,2.75 1.85378,9.5 2.28225,15 0.86712,11.13072 1.17858,10.03668 -6.97489,24.5 -2.63546,4.675 -5.79833,11.41282 -7.02859,14.97293 -2.51382,7.27446 -5.7001,13.39027 -10.43389,20.02707 -1.76533,2.475 -4.51575,7.2 -6.11205,10.5 -2.70822,5.59865 -2.89706,6.76925 -2.82309,17.5 0.0665,9.64416 0.61082,13.51722 3.37306,24 4.79445,18.19506 10.09723,31.49222 19.54074,49 6.59142,12.22015 14.29457,27.46797 19.32376,38.25 0.19241,0.4125 -27.55734,0.75 -61.66611,0.75 -58.18801,0 -62.04967,-0.10802 -62.56227,-1.75 z M 317.95135,329.45321 C 307.95106,327.64182 294.25363,322.7672 285,317.72654 257.58467,302.79279 238.39791,278.47679 230.3762,248.5 c -2.31322,-8.6444 -2.68536,-12.03339 -2.74517,-25 -0.0613,-13.29907 0.24331,-16.19065 2.68664,-25.5 3.05912,-11.6556 9.34744,-25.65908 15.81578,-35.2202 5.80776,-8.58471 19.77593,-22.33626 28.98356,-28.53411 9.60274,-6.46379 22.52136,-12.27453 35.38299,-15.91511 9.34569,-2.64537 11.21047,-2.8305 28.5,-2.8294 17.8805,10e-4 18.87709,0.10979 29.76085,3.2443 31.14375,8.96936 54.81877,27.78803 69.51356,55.25452 19.09887,35.69828 15.60894,79.38243 -8.98984,112.52774 -16.36742,22.05407 -42.71253,38.22333 -70.04438,42.98961 -10.43709,1.82007 -31.06342,1.78803 -41.28884,-0.0641 z M 164.33556,214.75 c 0.52949,-5.33909 1.6831,-11.65111 3.60957,-19.75 0.58873,-2.475 1.35257,-5.97343 1.69742,-7.77428 0.34486,-1.80086 1.01636,-3.51492 1.49223,-3.80902 0.47587,-0.2941 0.86522,-1.41428 0.86522,-2.48929 0,-1.075 0.3975,-2.73594 0.88333,-3.69098 0.48583,-0.95504 1.31638,-2.86143 1.84566,-4.23643 2.00621,-5.21187 13.69819,-28.51473 14.46684,-28.83333 0.44229,-0.18334 0.80523,-0.85834 0.80652,-1.5 C 190.00335,142.025 191.35258,139.925 193,138 c 1.64742,-1.925 2.99636,-4.0625 2.99765,-4.75 0.001,-0.6875 0.33985,-1.25307 0.75235,-1.25683 0.4125,-0.004 1.875,-1.68756 3.25,-3.74177 1.375,-2.05422 3.85,-5.13356 5.5,-6.84298 1.65,-1.70942 4.37293,-4.63812 6.05095,-6.50823 C 216.32312,109.58176 228.195,98.758395 232.2821,96 c 2.03733,-1.375 3.70731,-2.782906 3.71107,-3.12868 C 235.99717,92.525547 237.35,91.683452 239,91 c 1.65,-0.683452 3,-1.638047 3,-2.12132 C 242,88.395406 242.59015,88 243.31144,88 c 0.72129,0 2.27747,-0.9 3.45819,-2 1.18071,-1.1 2.80306,-2 3.60522,-2 0.80217,0 1.60848,-0.3375 1.79182,-0.75 0.50504,-1.136349 16.43297,-9.25 18.1587,-9.25 0.82938,0 1.65796,-0.347362 1.8413,-0.771915 C 272.35,72.803531 277.225,70.970666 283,69.155051 c 14.19357,-4.462349 15.51727,-4.808082 23,-6.007287 22.22381,-3.561658 35.66393,-3.959582 54.5,-1.61359 10.9865,1.368345 14.02961,1.912751 24.5,4.383004 4.7403,1.118367 13.10753,3.926954 15.23643,5.114336 C 401.19147,71.564181 402.87897,72 403.98643,72 405.09389,72 406,72.45 406,73 c 0,0.55 0.68111,1 1.51357,1 0.83246,0 2.29496,0.422884 3.25,0.939742 0.95504,0.516858 4.52292,2.296802 7.92863,3.955431 7.94975,3.87164 10.25163,5.20518 12.69544,7.354827 1.09422,0.9625 2.57963,1.75 3.30092,1.75 0.72129,0 1.31144,0.395406 1.31144,0.87868 0,0.483273 1.35,1.437868 3,2.12132 1.65,0.683452 3,1.541023 3,1.905713 0,0.364689 1.4625,1.52196 3.25,2.571711 4.16948,2.448625 29.59891,27.844896 32.80852,32.765746 1.34282,2.05874 2.72439,3.74624 3.07016,3.75 0.34577,0.004 1.18787,1.35683 1.87132,3.00683 0.68345,1.65 1.58345,3 2,3 0.41655,0 1.31655,1.35 2,3 0.68345,1.65 1.63805,3 2.12132,3 0.48327,0 0.87868,0.8625 0.87868,1.91667 0,1.05416 0.37908,2.06666 0.8424,2.25 0.78136,0.30917 10.2203,19.18475 12.41818,24.83333 0.53502,1.375 1.37026,3.28139 1.85609,4.23643 0.48583,0.95504 0.88333,2.61598 0.88333,3.69098 0,1.07501 0.40028,2.20194 0.88951,2.5043 0.48923,0.30237 1.13172,2.01642 1.42775,3.80902 0.29602,1.7926 1.04843,5.28427 1.67201,7.75927 0.62358,2.475 1.34954,5.85 1.61325,7.5 0.2637,1.65 0.88773,4.575 1.38673,6.5 0.49899,1.925 1.12725,5.1875 1.39613,7.25 l 0.48888,3.75 h -4.33644 -4.33643 l -0.54193,-4.25 c -0.29807,-2.3375 -1.04125,-6.725 -1.65152,-9.75 -0.61027,-3.025 -1.35925,-7.19032 -1.66439,-9.25627 -0.30515,-2.06595 -0.95728,-4.005 -1.44918,-4.30901 C 500.40247,192.1307 500,190.55852 500,188.94098 500,187.32344 499.55,186 499,186 c -0.55,0 -1,-1.09844 -1,-2.44098 0,-1.34254 -0.36089,-2.66403 -0.80197,-2.93663 -0.44109,-0.27261 -1.42243,-2.77417 -2.18077,-5.55902 C 494.25892,172.27852 493.26981,170 492.81923,170 492.36865,170 492,169.1 492,168 c 0,-1.1 -0.45,-2 -1,-2 -0.55,0 -1,-0.72623 -1,-1.61385 0,-1.78329 -4.06282,-9.69185 -5.25,-10.21948 -0.4125,-0.18334 -0.75,-1.19584 -0.75,-2.25 C 484,150.8625 483.60459,150 483.12132,150 c -0.48327,0 -1.43787,-1.35 -2.12132,-3 -0.68345,-1.65 -1.63805,-3 -2.12132,-3 C 478.39541,144 478,143.40985 478,142.68856 c 0,-0.72129 -0.79973,-2.18379 -1.77718,-3.25 -0.97745,-1.06621 -2.86529,-3.48139 -4.1952,-5.36706 -6.59592,-9.35233 -27.26703,-29.82784 -33.80861,-33.48869 -0.93257,-0.52189 -2.5732,-1.766524 -3.64586,-2.765851 C 433.5005,96.817632 432.23891,96 431.76963,96 c -0.46929,0 -1.81929,-0.9 -3,-2 -1.18072,-1.1 -2.7369,-2 -3.45819,-2 C 424.59015,92 424,91.55 424,91 c 0,-0.55 -0.8625,-1 -1.91667,-1 -1.05416,0 -2.06666,-0.393786 -2.25,-0.87508 C 419.38358,87.944221 407.44928,82 405.52852,82 404.68783,82 404,81.648242 404,81.218315 c 0,-0.429926 -2.1375,-1.395338 -4.75,-2.145359 -2.6125,-0.750021 -5.2,-1.687875 -5.75,-2.08412 -0.55,-0.396245 -2.35,-1.025974 -4,-1.399398 -1.65,-0.373424 -4.8,-1.136999 -7,-1.696834 -13.81597,-3.515755 -28.02234,-5.254985 -42.5,-5.203107 -15.16767,0.05435 -30.1579,1.207556 -31.45,2.419464 C 308.0275,71.599033 306.25945,72 304.621,72 c -3.18712,0 -3.81838,0.164951 -19.121,4.996344 -10.17483,3.21243 -26.72796,10.56251 -27.33333,12.136807 C 257.98333,89.609918 256.97083,90 255.91667,90 254.8625,90 254,90.45 254,91 c 0,0.55 -0.59015,1 -1.31144,1 -0.72129,0 -2.18379,0.7875 -3.25,1.75 -1.06621,0.9625 -3.17606,2.388541 -4.68856,3.16898 -1.5125,0.780439 -2.75,1.792939 -2.75,2.25 0,0.457061 -0.57134,0.83102 -1.26964,0.83102 -3.24412,0 -27.49174,23.76872 -34.75798,34.0715 -1.32991,1.88567 -3.21775,4.30085 -4.1952,5.36706 -0.97745,1.06621 -1.77718,2.52871 -1.77718,3.25 0,0.72129 -0.39541,1.31144 -0.87868,1.31144 -0.48327,0 -1.43787,1.35 -2.12132,3 -0.68345,1.65 -1.63805,3 -2.12132,3 -0.48327,0 -0.87868,0.8625 -0.87868,1.91667 0,1.05416 -0.35292,2.06666 -0.78427,2.25 C 192.12013,154.63232 186,166.8625 186,168.58623 186,169.36381 185.63135,170 185.18077,170 c -0.45058,0 -1.43192,2.25 -2.18077,5 -0.74885,2.75 -1.73019,5 -2.18077,5 -0.45058,0 -0.81923,1.35 -0.81923,3 0,1.65 -0.45,3 -1,3 -0.55,0 -1,1.32344 -1,2.94098 0,1.61754 -0.40247,3.18972 -0.89437,3.49374 -0.4919,0.30401 -1.14403,2.24306 -1.44918,4.30901 -0.30514,2.06595 -1.05412,6.23127 -1.66439,9.25627 -0.61027,3.025 -1.35345,7.4125 -1.65152,9.75 -0.53552,4.19972 -0.58916,4.25 -4.53378,4.25 H 163.8149 Z M 111.5,72.130864 C 100.74966,65.459706 98.972898,52.164944 107.64026,43.25 c 1.73786,-1.7875 3.85318,-3.25 4.70072,-3.25 0.84754,0 1.8191,-0.45 2.15902,-1 0.80384,-1.300641 8.19616,-1.300641 9,0 0.33992,0.55 1.31093,1 2.15781,1 2.50956,0 7.0803,5.695435 8.85236,11.030604 1.53175,4.611691 1.53237,5.325231 0.009,9.912816 -2.982,8.977969 -7.89743,13.059642 -15.71913,13.052842 -2.44624,-0.0021 -5.59285,-0.80623 -7.29966,-1.865398 z m 440.29761,0.231309 c -3.74107,-1.973631 -6.38501,-5.603863 -8.3164,-11.418753 -1.53122,-4.610071 -1.52676,-5.290217 0.0662,-10.086265 1.99607,-6.009612 5.52383,-9.907706 10.52355,-11.628263 4.38368,-1.508562 9.929,-1.603437 9.929,-0.169875 0,0.582459 0.45506,0.777776 1.01124,0.434038 0.55618,-0.343738 2.70645,1.092204 4.77837,3.190983 C 573.65274,46.59724 576,51.695015 576,56.171775 c 0,6.131003 -4.58768,13.519963 -10.20034,16.428757 -3.38762,1.755654 -10.45025,1.635425 -14.00205,-0.238359 z"
       id="path783"
       clip-path="url(#clipPath2276)" />
    <path
       style="fill:#652f03;fill-opacity:1"
       d="m 184.50065,438.4607 c 3.53389,-7.45492 9.57027,-19.27082 13.41417,-26.25755 8.77383,-15.94743 13.94329,-28.84704 18.71608,-46.70315 3.32851,-12.45273 3.74374,-15.32623 3.75707,-26 0.0144,-11.50512 -0.11453,-12.2516 -3.12566,-18.10099 -1.72736,-3.35554 -4.20986,-7.40554 -5.51667,-9 -4.04259,-4.93243 -6.51596,-9.62428 -10.24934,-19.44249 -1.97772,-5.20109 -5.31647,-12.38152 -7.41943,-15.95652 -7.90491,-13.43818 -7.89392,-13.39969 -6.99311,-24.5 0.44634,-5.5 1.73509,-13.34457 2.86388,-17.43237 1.1288,-4.08781 2.05236,-8.67375 2.05236,-10.19098 0,-1.51724 0.45,-3.03673 1,-3.37665 0.55,-0.33992 1,-2.58992 1,-5 0,-2.41008 0.45,-4.66008 1,-5 0.55,-0.33992 1,-1.49758 1,-2.57259 0,-1.075 0.39476,-2.73594 0.87724,-3.69098 1.57263,-3.11287 3.12276,-8.82067 3.12276,-11.49841 0,-1.44099 0.45,-2.8981 1,-3.23802 0.55,-0.33992 1,-2.39148 1,-4.55902 0,-2.16754 0.41968,-3.94098 0.93261,-3.94098 0.51294,0 1.22066,-0.90755 1.57271,-2.01677 C 205.22989,177.70031 211.79593,174 215.1223,174 c 1.21109,0 4.06689,1.09291 6.34622,2.42868 2.27933,1.33578 4.56886,2.12328 5.08786,1.75 0.92453,-0.66495 2.9514,-4.17324 7.61382,-13.17868 1.28139,-2.475 2.6673,-4.65 3.0798,-4.83333 0.4125,-0.18334 0.75,-1.19584 0.75,-2.25 0,-1.05417 0.35905,-1.91667 0.7979,-1.91667 0.43884,0 3.23257,-4.8375 6.20827,-10.75 2.9757,-5.9125 5.76665,-10.9 6.2021,-11.08333 0.43545,-0.18334 0.79173,-0.88598 0.79173,-1.56144 0,-0.67546 0.7875,-2.10046 1.75,-3.16667 0.9625,-1.06621 2.33765,-3.06356 3.0559,-4.43856 1.89275,-3.62347 3.17209,-5.08188 8.1241,-9.26122 3.53624,-2.98447 5.25368,-3.73878 8.51265,-3.73878 3.30732,0 4.45853,-0.52225 6.0619,-2.75 1.08858,-1.5125 3.47743,-4.2125 5.30855,-6 3.18944,-3.11347 3.66239,-3.25 11.2581,-3.25 4.6192,0 7.9288,0.41742 7.9288,1 0,0.55 0.46517,1 1.0337,1 1.23986,0 6.56807,5.30531 7.18401,7.15312 0.28251,0.84753 -2.05278,2.29835 -6.64099,4.12576 -11.21484,4.4667 -25.55358,11.6446 -32.07672,16.05742 -8.48016,5.73673 -24.30623,21.80635 -30.19896,30.6637 -20.29594,30.5068 -24.71504,65.47502 -12.9213,102.24606 1.85389,5.78013 9.47474,21.12567 10.72059,21.58727 0.49482,0.18334 0.89967,0.79805 0.89967,1.36603 0,4.90918 29.90142,34.80064 34.81224,34.80064 0.65327,0 1.18776,0.34384 1.18776,0.7641 0,0.42025 1.6875,1.54733 3.75,2.50461 2.0625,0.95728 4.425,2.17727 5.25,2.71109 2.19088,1.41761 9.95856,4.69017 14,5.89826 1.925,0.57543 5.075,1.55782 7,2.18308 5.69525,1.84989 18.10688,3.89804 23.75,3.91919 5.88883,0.0221 5.95209,0.14286 4.20033,8.01967 -2.06239,9.27355 -7.32798,21.76475 -15.63993,37.10156 -7.01614,12.94584 -7.69827,15.24836 -13.7457,46.39844 l -4.27105,22 -62.10913,0.25756 -62.10912,0.25755 z m 191.0878,11.7893 c -0.30048,-0.9625 -2.35819,-11.2 -4.57268,-22.75 -5.58797,-29.14488 -6.30038,-31.50247 -13.44677,-44.5 -8.72377,-15.86638 -14.62237,-30.73272 -16.1686,-40.75 l -0.65602,-4.25 5.37781,-0.0197 c 5.75159,-0.0211 18.13342,-2.05334 23.87781,-3.91919 1.925,-0.62526 5.075,-1.60765 7,-2.18308 4.04144,-1.20809 11.80912,-4.48065 14,-5.89826 0.825,-0.53382 3.1875,-1.75381 5.25,-2.71109 2.0625,-0.95728 3.75,-2.08436 3.75,-2.50461 C 400,320.34384 400.53449,320 401.18776,320 406.09858,320 436,290.10854 436,285.19936 c 0,-0.56798 0.40485,-1.18269 0.89967,-1.36603 0.49481,-0.18333 2.76687,-4.0476 5.04901,-8.58727 C 454.48417,250.31032 457.44066,220.39711 450.07753,193 442.47029,164.69461 419.9511,136.75321 393.5,122.7996 c -6.2421,-3.29285 -25.33054,-11.44811 -27.94859,-11.94062 -1.6451,-0.30948 -1.1315,-1.18365 3.29762,-5.61277 5.53117,-5.531177 6.86553,-5.959519 16.65097,-5.34513 5.04888,0.317 7.6027,1.96507 11.72172,7.56444 2.70729,3.68027 3.85129,4.46327 6.56812,4.49548 6.47979,0.0768 13.23032,5.14366 17.39316,13.05503 0.72435,1.37661 2.50933,4.07366 3.96661,5.99345 1.45729,1.91979 5.02944,8.21552 7.93811,13.99052 2.90867,5.775 5.54135,10.725 5.85039,11 0.50578,0.45007 3.5797,6.12106 9.48576,17.5 1.14187,2.2 2.46409,4.28275 2.93827,4.62832 0.47418,0.34558 2.72418,-0.4365 5,-1.73795 4.84074,-2.76823 8.13371,-2.98745 12.4595,-0.82946 3.42025,1.70624 7.17836,6.32858 7.17836,8.82911 0,2.229 1.80314,9.54174 5.08189,20.60998 1.54781,5.225 3.55,13.55 4.44932,18.5 0.89931,4.95 2.31156,11.25 3.13832,14 0.82677,2.75 1.85378,9.5 2.28225,15 0.86712,11.13072 1.17858,10.03668 -6.97489,24.5 -2.63546,4.675 -5.79833,11.41282 -7.02859,14.97293 -2.51382,7.27446 -5.7001,13.39027 -10.43389,20.02707 -1.76533,2.475 -4.51575,7.2 -6.11205,10.5 -2.70822,5.59865 -2.89706,6.76925 -2.82309,17.5 0.0665,9.64416 0.61082,13.51722 3.37306,24 4.79445,18.19506 10.09723,31.49222 19.54074,49 6.59142,12.22015 14.29457,27.46797 19.32376,38.25 0.19241,0.4125 -27.55734,0.75 -61.66611,0.75 -58.18801,0 -62.04967,-0.10802 -62.56227,-1.75 z M 317.95135,329.45321 C 307.95106,327.64182 294.25363,322.7672 285,317.72654 257.58467,302.79279 238.39791,278.47679 230.3762,248.5 c -2.31322,-8.6444 -2.68536,-12.03339 -2.74517,-25 -0.0613,-13.29907 0.24331,-16.19065 2.68664,-25.5 3.05912,-11.6556 9.34744,-25.65908 15.81578,-35.2202 5.80776,-8.58471 19.77593,-22.33626 28.98356,-28.53411 9.60274,-6.46379 22.52136,-12.27453 35.38299,-15.91511 9.34569,-2.64537 11.21047,-2.8305 28.5,-2.8294 17.8805,10e-4 18.87709,0.10979 29.76085,3.2443 31.14375,8.96936 54.81877,27.78803 69.51356,55.25452 19.09887,35.69828 15.60894,79.38243 -8.98984,112.52774 -16.36742,22.05407 -42.71253,38.22333 -70.04438,42.98961 -10.43709,1.82007 -31.06342,1.78803 -41.28884,-0.0641 z M 164.33556,214.75 c 0.52949,-5.33909 1.6831,-11.65111 3.60957,-19.75 0.58873,-2.475 1.35257,-5.97343 1.69742,-7.77428 0.34486,-1.80086 1.01636,-3.51492 1.49223,-3.80902 0.47587,-0.2941 0.86522,-1.41428 0.86522,-2.48929 0,-1.075 0.3975,-2.73594 0.88333,-3.69098 0.48583,-0.95504 1.31638,-2.86143 1.84566,-4.23643 2.00621,-5.21187 13.69819,-28.51473 14.46684,-28.83333 0.44229,-0.18334 0.80523,-0.85834 0.80652,-1.5 C 190.00335,142.025 191.35258,139.925 193,138 c 1.64742,-1.925 2.99636,-4.0625 2.99765,-4.75 0.001,-0.6875 0.33985,-1.25307 0.75235,-1.25683 0.4125,-0.004 1.875,-1.68756 3.25,-3.74177 1.375,-2.05422 3.85,-5.13356 5.5,-6.84298 1.65,-1.70942 4.37293,-4.63812 6.05095,-6.50823 C 216.32312,109.58176 228.195,98.758395 232.2821,96 c 2.03733,-1.375 3.70731,-2.782906 3.71107,-3.12868 C 235.99717,92.525547 237.35,91.683452 239,91 c 1.65,-0.683452 3,-1.638047 3,-2.12132 C 242,88.395406 242.59015,88 243.31144,88 c 0.72129,0 2.27747,-0.9 3.45819,-2 1.18071,-1.1 2.80306,-2 3.60522,-2 0.80217,0 1.60848,-0.3375 1.79182,-0.75 0.50504,-1.136349 16.43297,-9.25 18.1587,-9.25 0.82938,0 1.65796,-0.347362 1.8413,-0.771915 C 272.35,72.803531 277.225,70.970666 283,69.155051 c 14.19357,-4.462349 15.51727,-4.808082 23,-6.007287 22.22381,-3.561658 35.66393,-3.959582 54.5,-1.61359 10.9865,1.368345 14.02961,1.912751 24.5,4.383004 4.7403,1.118367 13.10753,3.926954 15.23643,5.114336 C 401.19147,71.564181 402.87897,72 403.98643,72 405.09389,72 406,72.45 406,73 c 0,0.55 0.68111,1 1.51357,1 0.83246,0 2.29496,0.422884 3.25,0.939742 0.95504,0.516858 4.52292,2.296802 7.92863,3.955431 7.94975,3.87164 10.25163,5.20518 12.69544,7.354827 1.09422,0.9625 2.57963,1.75 3.30092,1.75 0.72129,0 1.31144,0.395406 1.31144,0.87868 0,0.483273 1.35,1.437868 3,2.12132 1.65,0.683452 3,1.541023 3,1.905713 0,0.364689 1.4625,1.52196 3.25,2.571711 4.16948,2.448625 29.59891,27.844896 32.80852,32.765746 1.34282,2.05874 2.72439,3.74624 3.07016,3.75 0.34577,0.004 1.18787,1.35683 1.87132,3.00683 0.68345,1.65 1.58345,3 2,3 0.41655,0 1.31655,1.35 2,3 0.68345,1.65 1.63805,3 2.12132,3 0.48327,0 0.87868,0.8625 0.87868,1.91667 0,1.05416 0.37908,2.06666 0.8424,2.25 0.78136,0.30917 10.2203,19.18475 12.41818,24.83333 0.53502,1.375 1.37026,3.28139 1.85609,4.23643 0.48583,0.95504 0.88333,2.61598 0.88333,3.69098 0,1.07501 0.40028,2.20194 0.88951,2.5043 0.48923,0.30237 1.13172,2.01642 1.42775,3.80902 0.29602,1.7926 1.04843,5.28427 1.67201,7.75927 0.62358,2.475 1.34954,5.85 1.61325,7.5 0.2637,1.65 0.88773,4.575 1.38673,6.5 0.49899,1.925 1.12725,5.1875 1.39613,7.25 l 0.48888,3.75 h -4.33644 -4.33643 l -0.54193,-4.25 c -0.29807,-2.3375 -1.04125,-6.725 -1.65152,-9.75 -0.61027,-3.025 -1.35925,-7.19032 -1.66439,-9.25627 -0.30515,-2.06595 -0.95728,-4.005 -1.44918,-4.30901 C 500.40247,192.1307 500,190.55852 500,188.94098 500,187.32344 499.55,186 499,186 c -0.55,0 -1,-1.09844 -1,-2.44098 0,-1.34254 -0.36089,-2.66403 -0.80197,-2.93663 -0.44109,-0.27261 -1.42243,-2.77417 -2.18077,-5.55902 C 494.25892,172.27852 493.26981,170 492.81923,170 492.36865,170 492,169.1 492,168 c 0,-1.1 -0.45,-2 -1,-2 -0.55,0 -1,-0.72623 -1,-1.61385 0,-1.78329 -4.06282,-9.69185 -5.25,-10.21948 -0.4125,-0.18334 -0.75,-1.19584 -0.75,-2.25 C 484,150.8625 483.60459,150 483.12132,150 c -0.48327,0 -1.43787,-1.35 -2.12132,-3 -0.68345,-1.65 -1.63805,-3 -2.12132,-3 C 478.39541,144 478,143.40985 478,142.68856 c 0,-0.72129 -0.79973,-2.18379 -1.77718,-3.25 -0.97745,-1.06621 -2.86529,-3.48139 -4.1952,-5.36706 -6.59592,-9.35233 -27.26703,-29.82784 -33.80861,-33.48869 -0.93257,-0.52189 -2.5732,-1.766524 -3.64586,-2.765851 C 433.5005,96.817632 432.23891,96 431.76963,96 c -0.46929,0 -1.81929,-0.9 -3,-2 -1.18072,-1.1 -2.7369,-2 -3.45819,-2 C 424.59015,92 424,91.55 424,91 c 0,-0.55 -0.8625,-1 -1.91667,-1 -1.05416,0 -2.06666,-0.393786 -2.25,-0.87508 C 419.38358,87.944221 407.44928,82 405.52852,82 404.68783,82 404,81.648242 404,81.218315 c 0,-0.429926 -2.1375,-1.395338 -4.75,-2.145359 -2.6125,-0.750021 -5.2,-1.687875 -5.75,-2.08412 -0.55,-0.396245 -2.35,-1.025974 -4,-1.399398 -1.65,-0.373424 -4.8,-1.136999 -7,-1.696834 -13.81597,-3.515755 -28.02234,-5.254985 -42.5,-5.203107 -15.16767,0.05435 -30.1579,1.207556 -31.45,2.419464 C 308.0275,71.599033 306.25945,72 304.621,72 c -3.18712,0 -3.81838,0.164951 -19.121,4.996344 -10.17483,3.21243 -26.72796,10.56251 -27.33333,12.136807 C 257.98333,89.609918 256.97083,90 255.91667,90 254.8625,90 254,90.45 254,91 c 0,0.55 -0.59015,1 -1.31144,1 -0.72129,0 -2.18379,0.7875 -3.25,1.75 -1.06621,0.9625 -3.17606,2.388541 -4.68856,3.16898 -1.5125,0.780439 -2.75,1.792939 -2.75,2.25 0,0.457061 -0.57134,0.83102 -1.26964,0.83102 -3.24412,0 -27.49174,23.76872 -34.75798,34.0715 -1.32991,1.88567 -3.21775,4.30085 -4.1952,5.36706 -0.97745,1.06621 -1.77718,2.52871 -1.77718,3.25 0,0.72129 -0.39541,1.31144 -0.87868,1.31144 -0.48327,0 -1.43787,1.35 -2.12132,3 -0.68345,1.65 -1.63805,3 -2.12132,3 -0.48327,0 -0.87868,0.8625 -0.87868,1.91667 0,1.05416 -0.35292,2.06666 -0.78427,2.25 C 192.12013,154.63232 186,166.8625 186,168.58623 186,169.36381 185.63135,170 185.18077,170 c -0.45058,0 -1.43192,2.25 -2.18077,5 -0.74885,2.75 -1.73019,5 -2.18077,5 -0.45058,0 -0.81923,1.35 -0.81923,3 0,1.65 -0.45,3 -1,3 -0.55,0 -1,1.32344 -1,2.94098 0,1.61754 -0.40247,3.18972 -0.89437,3.49374 -0.4919,0.30401 -1.14403,2.24306 -1.44918,4.30901 -0.30514,2.06595 -1.05412,6.23127 -1.66439,9.25627 -0.61027,3.025 -1.35345,7.4125 -1.65152,9.75 -0.53552,4.19972 -0.58916,4.25 -4.53378,4.25 H 163.8149 Z M 111.5,72.130864 C 100.74966,65.459706 98.972898,52.164944 107.64026,43.25 c 1.73786,-1.7875 3.85318,-3.25 4.70072,-3.25 0.84754,0 1.8191,-0.45 2.15902,-1 0.80384,-1.300641 8.19616,-1.300641 9,0 0.33992,0.55 1.31093,1 2.15781,1 2.50956,0 7.0803,5.695435 8.85236,11.030604 1.53175,4.611691 1.53237,5.325231 0.009,9.912816 -2.982,8.977969 -7.89743,13.059642 -15.71913,13.052842 -2.44624,-0.0021 -5.59285,-0.80623 -7.29966,-1.865398 z m 440.29761,0.231309 c -3.74107,-1.973631 -6.38501,-5.603863 -8.3164,-11.418753 -1.53122,-4.610071 -1.52676,-5.290217 0.0662,-10.086265 1.99607,-6.009612 5.52383,-9.907706 10.52355,-11.628263 4.38368,-1.508562 9.929,-1.603437 9.929,-0.169875 0,0.582459 0.45506,0.777776 1.01124,0.434038 0.55618,-0.343738 2.70645,1.092204 4.77837,3.190983 C 573.65274,46.59724 576,51.695015 576,56.171775 c 0,6.131003 -4.58768,13.519963 -10.20034,16.428757 -3.38762,1.755654 -10.45025,1.635425 -14.00205,-0.238359 z"
       id="path783-8"
       clip-path="url(#clipPath1904)"
       transform="matrix(-1,0,0,1,678.136,-3.91e-4)" />
    <path
       id="path764"
       style="fill:#652f03;stroke-width:0.78412;fill-opacity:1"
       d="M 339.24351,58.861436 A 181.27027,183.59821 0 0 0 159.16959,222.42452 h 14.18116 A 166.30811,158.27052 0 0 1 339.07484,73.333574 166.30811,158.27052 0 0 1 505.0688,222.42452 h 14.32194 A 181.27027,183.59821 0 0 0 339.24351,58.861436 Z" />
    <path
       id="path785"
       style="stroke-width:0.890676;fill:#652f03;fill-opacity:1"
       d="M 141.59931,55.51133 A 20.644539,20.644539 0 0 1 120.95477,76.155869 20.644539,20.644539 0 0 1 100.31023,55.51133 20.644539,20.644539 0 0 1 120.95477,34.866791 20.644539,20.644539 0 0 1 141.59931,55.51133 Z" />
    <path
       id="path785-3"
       style="stroke-width:0.890676;fill:#652f03;fill-opacity:1"
       d="M 578.58428,55.51153 A 20.644539,20.644539 0 0 1 557.93974,76.15607 20.644539,20.644539 0 0 1 537.2952,55.51153 20.644539,20.644539 0 0 1 557.93974,34.867 20.644539,20.644539 0 0 1 578.58428,55.51153 Z" />
  </g>
</svg>
