<?xml version="1.0" encoding="UTF-8" standalone="no"?>
<svg xmlns="http://www.w3.org/2000/svg" version="1.0" viewBox="0 0 796 482" opacity=".33">>
  <g stroke="null" id="svg_1">
   <path stroke="null" id="svg_3" d="m43.05,121.87885l158,236.09095l99.18,0l102.9,-162.29101l100.5,162.29101l91.84,0l167.6,-236.09095l-102.9,0l-102.9,162.29101l-102.9,-162.29101l-102.9,0l-102.9,162.29101l-102.9,-162.29101l-102.9,0l0.28,0z"/>
   <path stroke="null" id="svg_4" d="m334.45,358.31413l137.1,0l-69.21,-119.13583l-67.94,119.13583l0.05,0z"/>
   <path stroke="#000" id="svg_5" d="m334.45,358.31413l137.1,0l-69.21,-119.13583l-67.94,119.13583l0.05,0z"/>
   <path stroke="null" id="svg_6" d="m488.75,121.87885l137.1,0l-68.57,118.10286l-68.57,-118.10286l0.04,0z"/>
   <path stroke="null" id="svg_7" d="m180.15,121.87885l137.1,0l-68.57,118.10286l-68.57,-118.10286l0.04,0z"/>
  </g>
</svg>